<svg id="Layer_1" data-name="Layer 1" xmlns="http://www.w3.org/2000/svg" viewBox="0 0 336.57 441.89"><defs><style>.cls-1{fill:none;}.cls-2{fill:#e9cc8a;}</style></defs><title>logo</title><path class="cls-1" d="M306.37,196.22c-2,.52-3.87,1.59-5.87,2.13-2.82.77-5.72,1.24-8.57,1.87-.8.18-1.58.44-2.35.69-1,.32-1.95.75-3,1-1.62.39-3.26.69-4.9,1h23.83c-.59-1.84,0-3,1.71-4a11.58,11.58,0,0,0,2.15-2.21C308.39,196.48,307.28,196,306.37,196.22Z" transform="translate(0.08 -2)"/><path class="cls-1" d="M113.23,92.66c.48,4.3.62,8.64.91,13h.15a9,9,0,0,0,.15,2,17.35,17.35,0,0,0,1.11,2.3,10.42,10.42,0,0,0,2.14-1.37c1.47-1.54,2.8-3.22,4.23-4.8.53-.57,1.27-.94,1.79-1.51a1.64,1.64,0,0,0,.39-1.24c0-.24-.65-.37-1-.54l-1.69-.81a11.87,11.87,0,0,1,1-1.81c1-1.24,2.12-2.41,3.2-3.6.6-.65,1.1-1.56,1.85-1.87a54.37,54.37,0,0,1,7.34-2.53c2.27-.57,4.65-.67,7-1.07.49-.09.91-.56,1.36-.86a4.51,4.51,0,0,0-.85-1c-2.72-1.74-5.4-3.56-8.21-5.12s-5.81-2.86-8.72-4.29c-4.25-2.09-8.49-4.22-12.76-6.28-1.23-.59-2.12,0-2.07,1.36s.31,2.6.49,3.9C111.76,81.9,112.64,87.27,113.23,92.66Z" transform="translate(0.08 -2)"/><path class="cls-1" d="M187.88,194.63c-.07.76-.18,1.84.24,2.28,1.64,1.71.91,3.63.82,5.51,0,.15,0,.31,0,.48h7.14c2-1.54,4.33-1.64,6.88-.61l1.48.61h24.11c.7-.38.95-1.07.55-2.11a17.09,17.09,0,0,1-.67-2.1,22.75,22.75,0,0,1-.91-4.41c-.18-6.63,1.16-13.19,1-19.83a6.76,6.76,0,0,1,.18-1.08c.6-4.09,1.3-8.16,1.76-12.26.28-2.44-.06-5,.33-7.37a6.9,6.9,0,0,0-1.45-5.84,5.85,5.85,0,0,1-1.45-2.88,5.61,5.61,0,0,0-4.3-5.16c-3.12-1-6.41-1.38-9.62-2.09a10.68,10.68,0,0,1-2.76-1c-1.83-1-3.57-1.94-5.79-1.06a2.67,2.67,0,0,1-2.14-.55c-1.65-1.35-3.62-1.57-5.58-1.89-1-.17-2.07-.3-3.07-.56-2.22-.58-4.41-1.29-6.64-1.8a2.08,2.08,0,0,0-1.83.52,4.7,4.7,0,0,0-.3,4.81c1.83,3.2.89,6.05-1.17,8.58a3,3,0,0,0-.26,3.7c.32.65.85,1.37.77,2a72.21,72.21,0,0,1-1.47,9.52,5.51,5.51,0,0,0,.59,4.93c1.22,1.67,1.45,3.53,1.83,5.42a8.61,8.61,0,0,0,.89,3.13,3.74,3.74,0,0,1,.17,4.36,5.19,5.19,0,0,0,0,5.26c1.68,2.72,1.57,3.79-1,5.77-1,.77-1.24,1.35,0,2.09A3.53,3.53,0,0,1,187.88,194.63Z" transform="translate(0.08 -2)"/><path class="cls-1" d="M144.07,108c2.93,2.28,5.65,4.74,7,8.32.34.86.52,1.78.84,2.65.8,2.2,1.6,4.39,2.48,6.56.14.34.66.52,1,.78a6,6,0,0,0,.5-1.24,12.18,12.18,0,0,0,.17-2.18c0-1.37-.09-2.75-.12-4.12a34.45,34.45,0,0,1,0-6.5c.23-1.38,1.41-2.62,2.21-3.89s1.51-2.22,2.51-3.68a7.32,7.32,0,0,0-2.08-.65c-3.67.09-7.33.2-11,.47a10,10,0,0,0-3.42,1C142.94,106.11,143,107.1,144.07,108Z" transform="translate(0.08 -2)"/><path class="cls-1" d="M131,199.19a2.48,2.48,0,0,0,3,.05,11.53,11.53,0,0,1,5.31-2.15,4.1,4.1,0,0,0,2.42-1.57c1.82-2.27,4.4-3.9,5.59-6.72.31-.72,1.12-1.22,1.67-1.85a60.39,60.39,0,0,0,4-4.78,6.07,6.07,0,0,0,.94-3.18c0-1.38-.52-2.76-.56-4.14-.1-3.2,0-6.4,0-9.59h.35a9.81,9.81,0,0,0-.08-1.09c-.53-2.87-.94-5.77-1.71-8.57a3.26,3.26,0,0,0-2.28-2c-2.81-.09-5.63.29-8.44.4a28.49,28.49,0,0,1-5.77-.06c-2.55-.43-4.85-2-7.6-1.77-.47,0-1-.45-1.47-.79-1.3-1-2.57-2-3.83-3a8.9,8.9,0,0,1-2.19-1.93c-1.84-3-3.52-6.14-5.3-9.2a1.22,1.22,0,0,0-.44-.4c-.18-.12-.38-.22-.55-.35h0c-.07.18-.16.36-.24.54a2,2,0,0,0-.15.55,4.21,4.21,0,0,0,.21,1.08,6.27,6.27,0,0,1-3.24,6,4.82,4.82,0,0,0-2.13,2c-1,1.93-1.73,4-2.54,6a1.3,1.3,0,0,0,0,.91c.53,1.19,1.08,2.38,1.72,3.52,1,1.86,2.42,3.54,2.33,5.89-.09,2.19,0,4.39,0,6.59,0,2.42.75,4.87-.32,7.25a1.72,1.72,0,0,0,0,.93,9.9,9.9,0,0,1-.92,6.42c-1.1,2.26-.65,4.67-.33,7,.12.82,1.71,1.35,2.45,2.17,1.34,1.5,2.7,2.11,4.49.78a1,1,0,0,1,.75-.17c2.34,1,4.93.68,7.24,1.29C126.05,195.92,128.5,197.7,131,199.19Z" transform="translate(0.08 -2)"/><path class="cls-1" d="M95.19,140.54c0,.38-.21.84-.06,1.13a9.48,9.48,0,0,0,1.23,1.79c.19.23.62.53.81.46s.38-.53.62-.9a16.56,16.56,0,0,0-1.37-2.31C96.23,140.47,95.61,140.58,95.19,140.54Z" transform="translate(0.08 -2)"/><path class="cls-1" d="M86.78,181.42a25.67,25.67,0,0,0,2.94-10.17,10.9,10.9,0,0,1,.41-2.47c1-4.07,1.46-8.1.16-12.23a3.85,3.85,0,0,1,.89-2.91A24.84,24.84,0,0,1,94.24,151c2.87-2.66,3-4.81.08-7.22-3.36-2.75-3-9.14.45-11.25a3.19,3.19,0,0,0,1.69-3c-.07-4.45-.19-8.9-.32-13.36a5.88,5.88,0,0,0-.38-1.42l-.49-.14a9.11,9.11,0,0,0-1.5,2.36c-1,3.86-1.77,7.75-2.61,11.64-.16.76-.16,1.56-.27,2.34-.26,1.86-.55,3.71-.81,5.57-.42,3-1.59,5.89-1.1,9.12a9.57,9.57,0,0,1-2.08,7.65,6.67,6.67,0,0,0-1.09,2.2c-.86,2.77-1.67,5.56-2.47,8.36a6.7,6.7,0,0,0-.48,2.59,6,6,0,0,1-1.7,4.88,3.09,3.09,0,0,0-.79,3.34,53.74,53.74,0,0,0,3.66,7C85,183.2,86,183,86.78,181.42Z" transform="translate(0.08 -2)"/><path class="cls-1" d="M96.18,137.47c.37,0,.74-.36,1.35-.7-.49-.38-.82-.79-1-.73a5.49,5.49,0,0,0-1.19.77C95.64,137,95.92,137.48,96.18,137.47Z" transform="translate(0.08 -2)"/><path class="cls-1" d="M176.29,85.6q2.55-.42,5.06-1a2.53,2.53,0,0,0,1.6-.91,1.7,1.7,0,0,0-.64-1.56,2.46,2.46,0,0,0-2,0c-1.82,1.06-3.45,2.51-5.74,2.55-.28,0-.56.36-.84.56l.12.39A15.15,15.15,0,0,0,176.29,85.6Z" transform="translate(0.08 -2)"/><path class="cls-1" d="M306.37,196.22c-2,.52-3.87,1.59-5.87,2.13-2.82.77-5.72,1.24-8.57,1.87-.8.18-1.58.44-2.35.69-1,.32-1.95.75-3,1-1.62.39-3.26.69-4.9,1h23.83c-.59-1.84,0-3,1.71-4a11.58,11.58,0,0,0,2.15-2.21C308.39,196.48,307.28,196,306.37,196.22Z" transform="translate(0.08 -2)"/><path class="cls-1" d="M204.22,101.54c.22,0,.69-.58.64-.66a4.87,4.87,0,0,0-1.29-1.68c-.3-.21-1,.09-1.5.29a13.89,13.89,0,0,0-1.62.94l.46.89C202,101.41,203.12,101.53,204.22,101.54Z" transform="translate(0.08 -2)"/><path class="cls-2" d="M326.24,202.9a14.29,14.29,0,0,1,5.87-8,3.6,3.6,0,0,0,1.91-3.46c0-2.83-.21-5.66-.15-8.49a5.2,5.2,0,0,1,1-2.68,8.07,8.07,0,0,0,1.65-4.47c.09-1.89-.9-3.39-1.3-5.08-.61-2.58-.72-5.28-1.24-7.89-.76-3.78-1.69-5.18-5.52-4.73-2.29.26-4.63.26-6.88.73a37.54,37.54,0,0,0-5.06,1.93c-.65.24-1.57.71-2,.45-1.53-.94-2.92-.4-4.39,0-1.81.49-3.66.86-5.48,1.36-4.63,1.27-9.29,2.48-13.86,3.93-4.32,1.38-8.61,2.91-12.81,4.62-3,1.22-6.28,2-8.63,4.57a10.21,10.21,0,0,1-3.06,1.88,1.82,1.82,0,0,1-1.23-.18,40.29,40.29,0,0,1,.14-5.27c.21-1.79.73-3.54,1-5.32a27.57,27.57,0,0,1,.69-4.6,62,62,0,0,1,2.78-5.75,4.12,4.12,0,0,0,.55-1.61,17.1,17.1,0,0,1,2.6-8,6.49,6.49,0,0,1,1.84-1.89c.8-.6,1.53-.53,1.94.61.7,1.94,1.73,2.53,3.82,2.51,1.35,0,2.07-.71,1.93-1.92-.2-1.71.55-2.7,1.81-3.7.62-.48,1.36-1.9,1.12-2.24-1.5-2.09-1.32-4.61-2.07-6.87a5.45,5.45,0,0,1-.22-2.62c.48-2.6-.82-4.79-1.42-7.14a18.14,18.14,0,0,1-.73-3.89c-.09-2.61-.49-5-2.85-6.63-1.62-1.14-1.56-2.11.18-3a1.76,1.76,0,0,0,1-2.46,9.71,9.71,0,0,0-1.27-2.51,54.56,54.56,0,0,1-6.77-10c-1.44-3-4.38-4.86-6.73-4.19-2,.57-3.5.9-4.91-1-.62-.84-1.88-1.18-2.61-2-2.19-2.37-4.34-4.8-6.37-7.3q-4.12-5.06-8-10.28c-2.54-3.38-5-6.85-7.44-10.29-1.5-2.09-3.39-4-4.39-6.3a19.62,19.62,0,0,0-9.23-9.9,40.93,40.93,0,0,1-9.58-7c-1.28-1.22-2.94-2.13-4-3.53-2.58-3.55-5.63-5.73-10.3-5.36a6.36,6.36,0,0,1-4.16-1.41,7.12,7.12,0,0,0-6.52-1.77c-1.41.31-2.16-.39-2.58-1.66s-.9-2.68-1.43-4-1.21-2.55-1.71-3.86a15.48,15.48,0,0,0-4.82-6.85A13.65,13.65,0,0,1,172.82,5a5.16,5.16,0,0,0-4.51-2.89c-1-.06-2-.11-3-.1-4.15,0-8.29,0-12.43.16a7.48,7.48,0,0,0-3.33,1C148.29,4,147.33,5.38,146,6c-3.11,1.37-4.58,4.36-6.93,6.47-.17.15-.19.48-.29.72-1.08,2.71-2.1,5.44-3.26,8.12a4.2,4.2,0,0,0,4,6.12,2,2,0,0,1,2.32,1.38A16,16,0,0,0,147,36.29a10,10,0,0,1,2.4,3.7c.51,1.12.55,2.45,1,3.62s1.46,1.54,2.69,1c1.43-.68,2.18-.31,3.06,1a5.58,5.58,0,0,0,2,1.75c2.16,1.15,4.5,2,6.54,3.31a3.89,3.89,0,0,0,4,.35,8.13,8.13,0,0,1,1.59-.28,6.93,6.93,0,0,1,.23,1.79,52.39,52.39,0,0,1-1,5.7,5.15,5.15,0,0,1-1.34,2,23.51,23.51,0,0,1-2.65,2.44A48.63,48.63,0,0,1,160.91,66c-2.74,1.72-5.55,3.32-8.35,4.92a3,3,0,0,1-1.87.56,65,65,0,0,1-6.4-2.16c-2.86-1.14-5.66-2.43-8.5-3.62-1.53-.64-3.11-1.2-4.66-1.81-4-1.57-8-3.19-12.11-4.67a2,2,0,0,1-1.62-1.81,11.08,11.08,0,0,0-.75-2.16c-.13-.39-.41-.83-.32-1.16.39-1.31-.4-2-1.29-2.58s-2.11-1.14-3.18-1.68c-1.34-.68-2.36-1.58-2.24-3.26a6.31,6.31,0,0,0-1-4.5c-.29-.4-.18-1.11-.22-1.68-.22-3.12-.43-6.24-.65-9.37-.17-2.47-.34-4.9,1.64-6.9a2.85,2.85,0,0,0,.6-3.47,13.12,13.12,0,0,1-1.21-3.89c-.28-2.36-.26-4.76-.43-7.15a3.4,3.4,0,0,0-4.66-2.8c-1.14.43-2.07,1-2.06,2.45,0,2.2-.16,4.41-.07,6.61a4.45,4.45,0,0,1-.88,3c-1.76,2.43-1.67,2.94,0,5.42a3.78,3.78,0,0,1,.58,1.88c.11,4.39.27,8.79.18,13.18a54.7,54.7,0,0,1-.89,6.58,1,1,0,0,1-.37.67,5.86,5.86,0,0,0-3,5.35c0,.14-.15.28-.18.43-.41,2.49-1.17,4.88-.16,7.51.66,1.72.71,3.67,2.13,5.1a1.51,1.51,0,0,1,.22.9,27,27,0,0,1,.24,4.39,11.86,11.86,0,0,1-1.07,3.15A20.41,20.41,0,0,0,97,76.86a59.24,59.24,0,0,0-.76,6.25,22.12,22.12,0,0,0-.12,3.73c.23,3.22,1,6.48-.93,9.5a2.6,2.6,0,0,0-.21.75c-.7,2.45-1.3,4.94-2.13,7.35-1.48,4.28-3.16,8.49-4.64,12.78-.66,1.91-1,3.93-1.54,5.9-.67,2.57-1.53,5.11-2,7.72-.68,3.9-1.17,7.85-1.54,11.79a51.38,51.38,0,0,1-2.7,11.23c-.56,1.72-1,3.48-1.51,5.22a18.15,18.15,0,0,1-.7,1.91c-1,2.26-2.3,4.43-2.81,6.79a33.41,33.41,0,0,0-.47,8.13c.12,3.88-.42,4.4-4,3.05a1.73,1.73,0,0,1-.95-1.08c-.59-2.75-1.23-5.51-1.58-8.3-.55-4.36-1-8.73-1.29-13.11-.37-5.91-.57-11.84-.76-17.75-.11-3.66,0-7.32-.07-11,0-2.61,0-5.22,0-7.82-.1-3.1-.28-6.19-.45-9.28-.08-1.44.32-2.32,2-2.26a5.76,5.76,0,0,0,2.3-.46c4-1.61,8-3.23,12.29-3.71a7.1,7.1,0,0,0,2.7-.79,2.44,2.44,0,0,0,1.23-1.69c-.28-5-.71-10-1.08-15-.15-2.16-1.39-2.88-3.29-1.82a33.27,33.27,0,0,1-11.3,3.51,36.09,36.09,0,0,0-4.22,1c-.91.26-1.75.3-2-.77a44,44,0,0,1-1.21-5.32c-.71-5-1.29-10-2-15.06-.19-1.43-.93-1.8-2.33-1.28a44.17,44.17,0,0,1-4.23,1.6c-3.19.83-6.42,1.53-9.65,2.24A1.93,1.93,0,0,0,43.3,73c.18,6.08.27,12.16.49,18.24.12,3.47-.31,4.39-3.7,5.28q-7.83,2-15.74,3.75a3,3,0,0,0-2.67,2.8,8.21,8.21,0,0,0-.05,2c.51,4,1,8,1.63,12,.26,1.75,1.14,2.11,2.78,1.6,4.19-1.3,8.4-2.5,12.61-3.74,1.56-.46,3.11-1,4.68-1.36,1-.27,2.1-.29,2.31,1.11a38.92,38.92,0,0,1,.44,4.7c.11,6.6.11,13.21.24,19.81s.35,13.4.53,20.09c.07,2.63.1,5.25.21,7.87.15,3.67.34,7.34.53,11a1.81,1.81,0,0,1-1.34,2A22.36,22.36,0,0,0,43,182.31a13.8,13.8,0,0,1-2.72,1.75c-4.12,1.45-8.52,2-12.26,4.6a18.09,18.09,0,0,1-9.58,3.53,1.91,1.91,0,0,0-.73.27Q11,195.73,4.37,199a8.44,8.44,0,0,0-4,3.87c-.86,1.67-.4,3.15,0,4.69v236.3H336.5v-241ZM202.07,99.49c.48-.2,1.2-.5,1.5-.29a4.87,4.87,0,0,1,1.29,1.68c0,.08-.42.66-.64.66-1.1,0-2.21-.13-3.31-.22l-.46-.89A13.89,13.89,0,0,1,202.07,99.49ZM174.58,84.67c2.29,0,3.92-1.49,5.74-2.55a2.46,2.46,0,0,1,2,0,1.7,1.7,0,0,1,.64,1.56,2.53,2.53,0,0,1-1.6.91q-2.5.63-5.06,1a15.15,15.15,0,0,1-2.43,0l-.12-.39C174,85,174.3,84.68,174.58,84.67Zm-1.05,147q7.75,7,8,19.92v41.2q-.25,12.87-8,19.86A27.11,27.11,0,0,1,155,319.67a26.69,26.69,0,0,1-18.19-7.05q-8.13-7-8.26-19.86v-41.2q.12-12.93,8.26-19.92A26.16,26.16,0,0,1,155,224.72,26.59,26.59,0,0,1,173.53,231.64ZM144.19,105.53a10,10,0,0,1,3.42-1c3.65-.27,7.31-.38,11-.47a7.32,7.32,0,0,1,2.08.65c-1,1.46-1.79,2.55-2.51,3.68s-2,2.51-2.21,3.89a34.45,34.45,0,0,0,0,6.5c0,1.37.11,2.75.12,4.12a12.18,12.18,0,0,1-.17,2.18,6,6,0,0,1-.5,1.24c-.35-.26-.87-.44-1-.78-.88-2.17-1.68-4.36-2.48-6.56-.32-.87-.5-1.79-.84-2.65-1.38-3.58-4.1-6-7-8.32C143,107.1,142.94,106.11,144.19,105.53Zm-31.6-34.26c4.27,2.06,8.51,4.19,12.76,6.28,2.91,1.43,5.89,2.72,8.72,4.29s5.49,3.38,8.21,5.12a4.51,4.51,0,0,1,.85,1c-.45.3-.87.77-1.36.86-2.31.4-4.69.5-7,1.07a54.37,54.37,0,0,0-7.34,2.53c-.75.31-1.25,1.22-1.85,1.87-1.08,1.19-2.18,2.36-3.2,3.6a11.87,11.87,0,0,0-1,1.81l1.69.81c.36.17,1,.3,1,.54a1.64,1.64,0,0,1-.39,1.24c-.52.57-1.26.94-1.79,1.51-1.43,1.58-2.76,3.26-4.23,4.8a10.42,10.42,0,0,1-2.14,1.37,17.35,17.35,0,0,1-1.11-2.3,9,9,0,0,1-.15-2h-.15c-.29-4.33-.43-8.67-.91-13-.59-5.39-1.47-10.76-2.22-16.13-.18-1.3-.44-2.59-.49-3.9S111.36,70.68,112.59,71.27Zm-15.06,65.5c-.61.34-1,.68-1.35.7s-.54-.43-.82-.66a5.49,5.49,0,0,1,1.19-.77C96.71,136,97,136.39,97.53,136.77Zm.26,6.25c-.24.37-.37.8-.62.9s-.62-.23-.81-.46a9.48,9.48,0,0,1-1.23-1.79c-.15-.29,0-.75.06-1.13.42,0,1-.07,1.23.17A16.56,16.56,0,0,1,97.79,143ZM81.16,171.3a6,6,0,0,0,1.7-4.88,6.7,6.7,0,0,1,.48-2.59c.8-2.8,1.61-5.59,2.47-8.36a6.67,6.67,0,0,1,1.09-2.2A9.57,9.57,0,0,0,89,145.62c-.49-3.23.68-6.09,1.1-9.12.26-1.86.55-3.71.81-5.57.11-.78.11-1.58.27-2.34.84-3.89,1.65-7.78,2.61-11.64a9.11,9.11,0,0,1,1.5-2.36l.49.14a5.88,5.88,0,0,1,.38,1.42c.13,4.46.25,8.91.32,13.36a3.19,3.19,0,0,1-1.69,3c-3.45,2.11-3.81,8.5-.45,11.25,2.94,2.41,2.79,4.56-.08,7.22a24.84,24.84,0,0,0-3.06,2.69,3.85,3.85,0,0,0-.89,2.91c1.3,4.13.88,8.16-.16,12.23a10.9,10.9,0,0,0-.41,2.47,25.67,25.67,0,0,1-2.94,10.17C86,183,85,183.2,84,181.66a53.74,53.74,0,0,1-3.66-7A3.09,3.09,0,0,1,81.16,171.3Zm1.17,63.86,13.26-9.67H109V318.9H95.59V239.65l-13.26,9.74Zm10,184.38H88.65v-21.8L85,400.42V396.5l3.65-2.66h3.68Zm22.4-18.35c-.07.58-.14,1.09-.23,1.55a12.2,12.2,0,0,1-.29,1.29c-.11.41-.23.82-.37,1.22s-.31.83-.5,1.3a9.27,9.27,0,0,1-.38.85c-.2.43-.46,1-.77,1.59s-.66,1.33-1,2.1-.74,1.54-1.13,2.32c-.91,1.83-1.92,3.88-3,6.13h-4.22s.09-.21.3-.64l.83-1.67c.34-.68.72-1.44,1.15-2.27s.84-1.66,1.25-2.47.8-1.56,1.15-2.24.65-1.21.88-1.6a2.82,2.82,0,0,1-1.16.36,11.74,11.74,0,0,1-1.49,0,5.47,5.47,0,0,1-2-.43,5.16,5.16,0,0,1-1.51-1,5.65,5.65,0,0,1-1.06-1.29,9.33,9.33,0,0,1-.68-1.39,8.72,8.72,0,0,1-.37-1.27,5.79,5.79,0,0,1-.11-.93c0-.07,0-.2,0-.39s0-.39,0-.62,0-.46,0-.7,0-.43,0-.6.05-.29.12-.62a6.77,6.77,0,0,1,.36-1.21,9.92,9.92,0,0,1,.74-1.51,6.64,6.64,0,0,1,1.24-1.5,7.08,7.08,0,0,1,1.89-1.22,9.08,9.08,0,0,1,5.48-.46,6.51,6.51,0,0,1,2.11,1,6.21,6.21,0,0,1,1.46,1.48,7.79,7.79,0,0,1,1.34,3.41A5.59,5.59,0,0,1,114.73,401.19ZM102,360.45v17.69H95.85V360.45L82.91,335.16h6.9l9.1,19.07L108,335.16h6.9ZM115.36,194.1c-1.79,1.33-3.15.72-4.49-.78-.74-.82-2.33-1.35-2.45-2.17-.32-2.28-.77-4.69.33-7a9.9,9.9,0,0,0,.92-6.42,1.72,1.72,0,0,1,0-.93c1.07-2.38.36-4.83.32-7.25,0-2.2-.13-4.4,0-6.59.09-2.35-1.29-4-2.33-5.89-.64-1.14-1.19-2.33-1.72-3.52a1.3,1.3,0,0,1,0-.91c.81-2,1.55-4.1,2.54-6a4.82,4.82,0,0,1,2.13-2,6.27,6.27,0,0,0,3.24-6,4.21,4.21,0,0,1-.21-1.08,2,2,0,0,1,.15-.55c.08-.18.17-.36.24-.54h0c.17.13.37.23.55.35a1.22,1.22,0,0,1,.44.4c1.78,3.06,3.46,6.18,5.3,9.2a8.9,8.9,0,0,0,2.19,1.93c1.26,1,2.53,2,3.83,3,.44.34,1,.82,1.47.79,2.75-.22,5,1.34,7.6,1.77a28.49,28.49,0,0,0,5.77.06c2.81-.11,5.63-.49,8.44-.4a3.26,3.26,0,0,1,2.28,2c.77,2.8,1.18,5.7,1.71,8.57a9.81,9.81,0,0,1,.08,1.09h-.35c0,3.19-.07,6.39,0,9.59,0,1.38.59,2.76.56,4.14a6.07,6.07,0,0,1-.94,3.18,60.39,60.39,0,0,1-4,4.78c-.55.63-1.36,1.13-1.67,1.85-1.19,2.82-3.77,4.45-5.59,6.72a4.1,4.1,0,0,1-2.42,1.57,11.53,11.53,0,0,0-5.31,2.15,2.48,2.48,0,0,1-3-.05c-2.45-1.49-4.9-3.27-7.6-4-2.31-.61-4.9-.32-7.24-1.29A1,1,0,0,0,115.36,194.1Zm3.19,141.06H146v6.16H125.06v12.26h17.86v5.78H125.06V372H146v6.16H118.55ZM127,419.54H123.3v-21.8l-3.65,2.68V396.5l3.65-2.66H127Zm23.53-3.82h-2v3.82h-3.68v-3.82H134.07v-3.48l8.58-18.4h4.11l-8.69,18.4h6.72v-7.38h3.68v7.38h2Zm21.88-4.34H161.53V407.7h10.86Zm5.08-33.24-3.33-9.61h-16.3l-3.3,9.61h-6.9l15.62-43h5.45l15.63,43Zm8.67-189.21c2.56-2,2.67-3.05,1-5.77a5.19,5.19,0,0,1,0-5.26,3.74,3.74,0,0,0-.17-4.36,8.61,8.61,0,0,1-.89-3.13c-.38-1.89-.61-3.75-1.83-5.42a5.51,5.51,0,0,1-.59-4.93,72.21,72.21,0,0,0,1.47-9.52c.08-.63-.45-1.35-.77-2a3,3,0,0,1,.26-3.7c2.06-2.53,3-5.38,1.17-8.58a4.7,4.7,0,0,1,.3-4.81,2.08,2.08,0,0,1,1.83-.52c2.23.51,4.42,1.22,6.64,1.8,1,.26,2,.39,3.07.56,2,.32,3.93.54,5.58,1.89a2.67,2.67,0,0,0,2.14.55c2.22-.88,4,.08,5.79,1.06a10.68,10.68,0,0,0,2.76,1c3.21.71,6.5,1.1,9.62,2.09a5.61,5.61,0,0,1,4.3,5.16,5.85,5.85,0,0,0,1.45,2.88,6.9,6.9,0,0,1,1.45,5.84c-.39,2.41,0,4.93-.33,7.37-.46,4.1-1.16,8.17-1.76,12.26a6.76,6.76,0,0,0-.18,1.08c.2,6.64-1.14,13.2-1,19.83a22.75,22.75,0,0,0,.91,4.41,17.09,17.09,0,0,0,.67,2.1c.4,1,.15,1.73-.55,2.11H204.42l-1.48-.61c-2.55-1-4.85-.93-6.88.61h-7.14c0-.17,0-.33,0-.48.09-1.88.82-3.8-.82-5.51-.42-.44-.31-1.52-.24-2.28a3.53,3.53,0,0,0-1.73-3.61C184.9,190.28,185.15,189.7,186.14,188.93Zm7.49,230.61H190v-21.8l-3.65,2.68V396.5l3.65-2.66h3.68ZM216,401.19c-.07.58-.15,1.09-.23,1.55s-.18.88-.29,1.29-.24.82-.38,1.22-.3.83-.49,1.3c0,.13-.17.41-.38.85s-.46,1-.77,1.59-.66,1.33-1,2.1-.75,1.54-1.13,2.32l-3,6.13h-4.21s.09-.21.3-.64l.83-1.67,1.14-2.27,1.26-2.47c.41-.81.79-1.56,1.15-2.24s.65-1.21.87-1.6a2.73,2.73,0,0,1-1.15.36,11.79,11.79,0,0,1-1.49,0,5.52,5.52,0,0,1-2-.43,5.24,5.24,0,0,1-1.5-1,5.4,5.4,0,0,1-1.06-1.29,9.33,9.33,0,0,1-.68-1.39,8.72,8.72,0,0,1-.37-1.27,4.83,4.83,0,0,1-.11-.93c0-.07,0-.2,0-.39s0-.39,0-.62,0-.46,0-.7a5,5,0,0,1,0-.6c0-.08.05-.29.12-.62a6.77,6.77,0,0,1,.36-1.21,9.06,9.06,0,0,1,.74-1.51,6.38,6.38,0,0,1,1.24-1.5,7.08,7.08,0,0,1,1.89-1.22,9.08,9.08,0,0,1,5.48-.46,6.46,6.46,0,0,1,2.1,1,6.07,6.07,0,0,1,1.47,1.48,8.13,8.13,0,0,1,1.34,3.41A5.59,5.59,0,0,1,216,401.19Zm-3.4-23.05-8.87-18.37h-8.31v18.37h-6.52v-43h16.78a13.18,13.18,0,0,1,8.75,2.83,11.41,11.41,0,0,1,4.27,9.17q-.1,8.74-8.31,11.91l10,19.07Zm15.65,41.4H224.6v-21.8L221,400.42V396.5l3.65-2.66h3.68Zm20.87-2a7.91,7.91,0,0,1-5.57,2.17,7.66,7.66,0,0,1-5.48-2.17,7.17,7.17,0,0,1-2.34-5.55,6.69,6.69,0,0,1,3-5.78,7.38,7.38,0,0,1-1.8-2.31,5.3,5.3,0,0,1-.76-2.89,7.25,7.25,0,0,1,2.17-5.3,7,7,0,0,1,5.18-2.12,7.16,7.16,0,0,1,5.27,2.12,7.32,7.32,0,0,1,2.1,5.3,5.75,5.75,0,0,1-.69,2.89,8.6,8.6,0,0,1-1.86,2.31,6.74,6.74,0,0,1,3,5.78A7.34,7.34,0,0,1,249.15,417.58Zm-10.73-39.09a24.3,24.3,0,0,1-16.41-5.9l4.27-4.89a18.89,18.89,0,0,0,12.2,4.28q8.37-.12,8.49-6c0-3.2-1.83-5.13-5.6-5.77l-5.69-.8a14.1,14.1,0,0,1-8.43-4.1,11.42,11.42,0,0,1-3-8,11.72,11.72,0,0,1,3.75-9.07c2.42-2.28,5.84-3.44,10.29-3.48a24.09,24.09,0,0,1,13.94,4.45l-3.63,5.36a19.72,19.72,0,0,0-10.64-3.3,8.14,8.14,0,0,0-5,1.5,5.59,5.59,0,0,0-2.15,4.66,4.74,4.74,0,0,0,1.44,3.36,8.31,8.31,0,0,0,4.63,2.12c1.18.2,2.79.43,4.83.68q6,.83,8.94,4.33a12.23,12.23,0,0,1,2.85,8Q253.2,378.32,238.42,378.49Zm15.67-85.73q-.26,12.87-8,19.86a27.09,27.09,0,0,1-18.51,7.05,26.72,26.72,0,0,1-18.2-7.05q-8.13-7-8.26-19.86v-41.2q.13-12.93,8.26-19.92a26.18,26.18,0,0,1,18.2-6.92,26.56,26.56,0,0,1,18.51,6.92q7.75,7,8,19.92Zm53.17-93.9c-1.7,1-2.3,2.2-1.71,4H281.72c1.64-.3,3.28-.6,4.9-1,1-.24,2-.67,3-1,.77-.25,1.55-.51,2.35-.69,2.85-.63,5.75-1.1,8.57-1.87,2-.54,3.87-1.61,5.87-2.13.91-.24,2,.26,3,.43A11.58,11.58,0,0,1,307.26,198.86Z" transform="translate(0.08 -2)"/><path class="cls-2" d="M227.57,238.11q-12.81.25-13.07,14.29V292q.25,14.16,13.07,14.29,12.75-.13,13.13-14.29V252.4Q240.33,238.36,227.57,238.11Z" transform="translate(0.08 -2)"/><polygon class="cls-2" points="166.02 341.97 159.8 360.75 172.35 360.75 166.13 341.97 166.02 341.97"/><path class="cls-2" d="M212.57,347.16a5.72,5.72,0,0,0-2.15-4.87,7.49,7.49,0,0,0-4.77-1.32h-10.2v13h9.84a7.07,7.07,0,0,0,5.48-2.13A6.61,6.61,0,0,0,212.57,347.16Z" transform="translate(0.08 -2)"/><path class="cls-2" d="M110.9,400.12a4.16,4.16,0,0,0-.33-1.09,2.63,2.63,0,0,0-.65-.9,2.83,2.83,0,0,0-1.08-.61,4.34,4.34,0,0,0-1.65-.17,3.27,3.27,0,0,0-1.79.55,4.38,4.38,0,0,0-1.1,1.09,4,4,0,0,0-.56,1.16,3.35,3.35,0,0,0-.16.78c0,.46,0,1,.07,1.51a4.29,4.29,0,0,0,.41,1.56,3.18,3.18,0,0,0,1.09,1.26,4,4,0,0,0,2.08.59,3.14,3.14,0,0,0,1.21-.17,3.63,3.63,0,0,0,1-.54,3.51,3.51,0,0,0,.73-.76,5,5,0,0,0,.51-.83,3.38,3.38,0,0,0,.29-.77,2.42,2.42,0,0,0,.09-.57c0-.29,0-.62,0-1A7,7,0,0,0,110.9,400.12Z" transform="translate(0.08 -2)"/><path class="cls-2" d="M243.58,404.67a3.8,3.8,0,0,0,2.58-1,3.52,3.52,0,0,0,1.1-2.72,3.59,3.59,0,0,0-1.1-2.77,3.94,3.94,0,0,0-2.58-.9,3.85,3.85,0,0,0-2.52.9,3.51,3.51,0,0,0-1.14,2.77,3.45,3.45,0,0,0,1.14,2.72A3.72,3.72,0,0,0,243.58,404.67Z" transform="translate(0.08 -2)"/><path class="cls-2" d="M243.58,407.93a4.15,4.15,0,0,0-2.87,1.14,3.89,3.89,0,0,0-1.27,2.93,3.85,3.85,0,0,0,1.27,2.89,3.89,3.89,0,0,0,2.87,1.18,4,4,0,0,0,2.93-1.18,3.89,3.89,0,0,0,1.23-2.89,3.93,3.93,0,0,0-1.23-2.93A4.22,4.22,0,0,0,243.58,407.93Z" transform="translate(0.08 -2)"/><path class="cls-2" d="M212.2,400.12a4.58,4.58,0,0,0-.33-1.09,2.63,2.63,0,0,0-.65-.9,2.83,2.83,0,0,0-1.08-.61,4.36,4.36,0,0,0-1.65-.17,3.25,3.25,0,0,0-1.79.55,4.22,4.22,0,0,0-1.1,1.09,4.28,4.28,0,0,0-.57,1.16,4,4,0,0,0-.16.78c0,.46,0,1,.08,1.51a4.29,4.29,0,0,0,.41,1.56,3.23,3.23,0,0,0,1.08,1.26,4.07,4.07,0,0,0,2.08.59,3.19,3.19,0,0,0,1.22-.17,3.65,3.65,0,0,0,1.7-1.3,5,5,0,0,0,.51-.83,3.93,3.93,0,0,0,.29-.77,2.42,2.42,0,0,0,.09-.57c0-.29,0-.62,0-1A6.94,6.94,0,0,0,212.2,400.12Z" transform="translate(0.08 -2)"/><path class="cls-2" d="M142,252.4V292q.26,14.16,13.06,14.29,12.75-.13,13.14-14.29V252.4q-.39-14-13.14-14.29Q142.2,238.37,142,252.4Z" transform="translate(0.08 -2)"/></svg>