<svg id="Layer_1" data-name="Layer 1" xmlns="http://www.w3.org/2000/svg" viewBox="0 0 638.18 669.29"><title>poppy</title><path d="M398,678c-4.61-2.17-9.65-1.16-14.46-1.73-15.36-1.82-30.33-5.72-45.63-7.76-10.72-1.43-21.51-2-32.3-2.58-14.93-.82-29.87-1.55-44.59-4.41-20.66-4-38.36-14.1-53.36-28.34-20.4-19.36-41.3-38.25-60.52-58.83-8.77-9.39-16.94-19.64-19.22-32.66-3.16-18.05-4.84-36.27,2.12-54,.6-1.52,1.35-3,2-4.49L130,494c-3.44,10.87-1.45,21.88-.4,32.77.39,4.06-.95,8.71,2.43,12.26.82,8.17,5.71,14.45,10.31,20.59,11.39,15.21,25.42,27.92,39.65,40.4a155,155,0,0,0,16,16c5.46,6.64,12.19,11.85,19,17,8.74,8.1,19.08,13.54,30,18,11.61,5.32,24.17,6.64,36.59,7.84,14.44,1.39,29,1.47,43.43,3.06,1.13.11,2.26.23,3.09-.81H333c1.74,0,2.54,1.94,4.42,1.92,11.1-.08,21.56,4.17,32.54,5,9.19,2.3,18.59,3.21,28,4,12.62.49,25.06-.43,37-4.93,5.88-1.85,12.21-2.59,17-7a59.16,59.16,0,0,0,20-9h0a2.13,2.13,0,0,0,2-1c8.66-2.94,16.6-7.5,25-11,8.25-1.45,15.84-5.18,24-7a166.4,166.4,0,0,0,22-7,82.82,82.82,0,0,0,35-15.94c2.22-.16,3.19-2.12,4.73-3.26,4-3,6.77-7.38,11.52-9.41-12.35,16-28.52,26.37-47.62,32.61-18.22,6-37,9.94-55,16.85-15.62,6-30,14.69-45.46,21.11-13.54,5.62-27.35,10-42.22,10.1-.8,0-1.69-.11-2,1Z" transform="translate(-115.83 -8.71)" style="fill:#be081e"/><path d="M435,667c-11.95,4.5-24.39,5.42-37,4.93-.17-1.12,0-3-.56-3.27-5.81-3.14-4.24-8.38-4.55-13.44-1.05-17.25-2.49-34.48-4.1-51.68-.21-2.24.22-5.7-3.39-6.49-1.23-.27-2.28-.54-2.27-2.08s1.21-1.59,2.29-2.08c3.56-1.61,5.24-6.38,2.65-9-5.21-5.35-2.93-11.57-2.53-17.42.21-3.09.37-5.78-1.06-8.6a17,17,0,0,1-.5-13.67c1.45-3.71,1.82-6.32-.09-9.59a5.37,5.37,0,0,1-.78-3.79c1.77-5.48.58-10.36-2.27-15.11-.57-.94-.41-2.29-.85-3.34-2.31-5.51,1.79-10.56,1.08-16-.28-2.2-.58-3.3-2.95-4.73C372,487.93,365.6,487.94,359,488c-.4-.28-.79-.82-1.19-.82-9.93,0-19-3.76-28.2-6.7-4.4-1.41-5.47,0-6.73,3.37-2.09,5.53-4.57,10.91-6.5,16.49-2.05,6-6.25,10.78-8.36,16.67,0,.33,0,.67,0,1-3.59,3.21-3.53,8.23-6,12,0,.33,0,.66,0,1-3,2.24-2.76,6-4,9l-11,23.67c-8.41,18.06-16.89,36.1-25.21,54.21-5,11-9.84,22.07-14.75,33.12-10.92-4.46-21.26-9.9-30-18,2.06.14,3.09-.68,3-2.88,0-1.29-.17-3.2.57-3.8,4.46-3.59,6.22-8.59,8.06-13.67,5.12-14.12,16.75-24.31,22.46-38.42,4.3-10.62,11.05-20.51,16.22-31a15.2,15.2,0,0,1,4.36-5.37c4.67-3.63,4.51-11,10.55-13.51.22-.09.41-.57.42-.87.28-9.52,9.2-15,11-23.85,1.1-5.33,6.57-8.33,7.78-13.65.61-2.67,1.41-4.88,4-6.44,2.33-1.38,2.69-3.76,1.68-6.56-2-5.44-6.87-7.34-11.2-10-7.77-6.39-16-12.3-22.07-20.53a3,3,0,0,0-4.83-.44c-3.66,3.41-8.47,5-12.22,8.39-4.49,4-9.77,7.19-14.49,11C237,465.72,230.87,469,226,474c-1.68-.07-2.73,1.17-3.91,2q-22.82,16.33-45.58,32.75c-10.59,7.62-21,15.5-31.89,22.7-4.05,2.67-7.72,6.19-12.58,7.58-3.38-3.55-2-8.2-2.43-12.26-1-10.89-3-21.9.4-32.77,2-.24,2.54,1.89,4.67,2.87.06-2.68,1.82-3.28,4-4.11,5.76-2.19,11.87-3.79,16.73-7.95,2-1.72,4-3.35,6.77-4,6.81-1.68,12.28-6.46,19.42-7.86,6-1.17,10.77-6.09,17.21-6.93,3-.39,5.45-2.27,7.43-4.67a5.89,5.89,0,0,1,3.68-2.34c8.44-1.29,15.05-6.47,22.19-10.54,4.68-2.66,9.95-3.85,14.72-6.79,3-1.85,6.75-2.82,8-6.25,1.19-3.2,5.28-4.72,5-8.11-.44-6-3.92-10.94-7.17-15.8-.64-.94-2.14-1.28-3.64-1.07-10.37,1.43-20.85.74-31.28,1.27-11.76.6-23.83,0-34.79-5.73a80,80,0,0,1,11.94-12.18c.29,2.37,2.06,2.2,3.75,2.2,2.16,0,4.52-.54,6.45.14,12.33,4.28,24.93,1.69,37.42,1.88,4,.06,5.78-1.44,5.52-5.64-.23-3.8-1.64-7.48-1.09-11.34,5.87.91,11.25-2.19,17-2,.15.46.18,1.22.48,1.35,5.36,2.34,7,6.63,6.53,12.11a11.21,11.21,0,0,0,2.33,7.8c2,2.94,4.83,5.8,5.66,9.11,1.32,5.23,5.21,8.16,8.83,10.73,5.28,3.74,8,8.2,8.12,14.42,0,2.58.95,3.71,3.53,3.47,2.77-.24,5.37.26,7.34,2.37,6.65,7.11,14.26,12.75,23.61,15.87a7.39,7.39,0,0,1,4.54,3.7c1.28,2.68,3.51,3.18,6.23,3.09,4.47-.15,8.8,0,13.18,1.76,7.54,3,15.34,5.78,23.23.54,1.16-.76,2.59-.25,3.82.4a10.06,10.06,0,0,0,4.76,1.29c11.33,0,22.27-1.3,31.77-8.29a5.66,5.66,0,0,1,2.33-.75c4.51-.78,8.49-3.66,13.38-3.17,1.54.15,3.08-1,4.14-2.45,4.39-6,9.5-11.08,17.13-12.87,3.45-.81,6.13-2.57,6.14-6.73a3.75,3.75,0,0,1,1-2.21c3.26-3.7,4.1-8.77,7.34-12.55,1.36-1.59,2.22-3.08,4.61-3,4.29.07,5.89-2,6.24-6.47.25-3.21-.68-7.61,2.72-9.63,3.68-2.2,4.45-5.07,4-8.78a18.66,18.66,0,0,1,1.2-7.83c1.29-4.12,1.69-8.6.53-12.32-2.09-6.73.34-12.68,1.28-18.93,7.47,0,14.46-3.48,22-3,1.64,6.71.87,13.54,1,20.33,0,2.45.28,5.4,3.23,5.17,6.91-.53,14.15-.23,20.67-2,12.81-3.4,26.19-3.56,38.77-7.73,2.81-.93,6.3-1.38,7.38-5.05,3.17,3.35,8.17,4.17,11,8a2.46,2.46,0,0,0,2.14,2.15l.12-.1c-3.6,5.37-8.76,7.32-15.06,8.51s-13.11,1.19-18.87,5.2a7.54,7.54,0,0,1-7.12.85c-1.52-.63-3.76-1.16-4.28,1.67-4.07.56-8-.81-12-1-6.57-1-13.13-2.06-19.71-3a38.1,38.1,0,0,0-5.45,0c-1.19,0-2.8.17-2.63,1.55.4,3.2-2.4,5.41-2.2,8.45.14,2.72-.95,5.07-1.95,7.53-1.76,4.34-4.23,8.52-4.06,13.46a53.84,53.84,0,0,1-3.74,6.37C495,424.13,491.07,430.11,487,436c-2,.09-2,1.54-2,3a15,15,0,0,0-5,5c-3.44,3.7-6.67,7.62-10.39,11-2,1.83-3.42,4.67-6.62,5-.48.1-1.24,0-1.4.31-3.75,6.48-11.11,7.37-16.62,11.06-3.58,2.4-8.49,2.57-11,6.62-1.1,0-2.29-.18-3,1-1.33.05-2.87-.32-3.95.22-8.87,4.38-18.73,5.09-28,7.78-4.52.58-5.27,2.84-3,9,0,1.33,0,2.66,0,4a38.64,38.64,0,0,1,.9,4.85c.85,14,4.49,27.64,5.8,41.56.51,5.5,2.71,10.93,1.28,16.59.13,1.39-.48,3,1,4v2c-.92,4.64,1.63,8.73,2.1,13.19,1.55,14.57,3.45,28.94,9.95,42.6,5.33,11.2,11.14,22.15,16.57,33.29C435.08,661,435.89,663.82,435,667Z" transform="translate(-115.83 -8.71)" style="fill:#df001d"/><path d="M706,214c-2.49,2.88-5.21,5.6-7.4,8.69-3.06,4.32-2.29,7.95,2,11.18,2.11,1.59,4.38,3,6.54,4.52,9.45,6.68,12.21,15.13,8.42,26.12-3.25,9.44-9.66,16.58-17.11,22.87-12,10.13-25.43,18.17-38.67,26.49-1.13.71-2.26,1.41-3.7,1.14-5.67,0-9.23-3.64-13.42-6.89a139.5,139.5,0,0,0-20.78-12.77c-2.83-1.49-5-4.5-7.79-5-6.07-1-7.67-5-8.54-10l.3-2.44c6.39-17.12,8.55-34.67,5.69-52.8-1.28-8.13-1.15-16.52-4.67-24.21,0-.61,0-1.22,0-1.83,8.79-9.7,14.92-21.33,22.9-31.62,2.76-3.57,4.82-7.69,7.2-11.55,1.8-.74,2.16-2.55,3-4l2-1c2.07-.07,4.07-.18,2-3l6-8a1.82,1.82,0,0,0,2-2h0a3,3,0,0,0,2-3c.35-2.05,1-3.93,3-5,2-.09,2-1.55,2-3h0c4.4.83,8.57,1.62,11.19,6.19,4.39,7.68,8.42,15.65,14.61,22.18,1.1,1.17,2.54,2.62,1.57,4.35-1.09,1.95-3.38,1.62-5,1.08-2.48-.83-4.61-2.79-7.1-3.46-7.43-2-14.84-3.91-21.9-7-.93-.41-2.15-.6-2.77.29-.72,1,.38,1.78,1,2.51,1.17,1.4,2.81,2.61,3.42,4.22a20.82,20.82,0,0,0,9.36,11c2.79,1.64,2.15,5.41-.91,6.54-1.22.46-3,.28-3,2-.08,2,1.52,2.83,3.27,3.13,1.94.34,2.47.89,1.48,3-2.42,5.1-1.36,6.24,4.13,8.26,4.41,1.62,10.62,1.48,11.22,8.51a2.68,2.68,0,0,0,2.57,2.1c4.7-.14,7,5.42,11.85,4.95.65-.07,1.82,1.14,2.09,2C697.69,213.82,701.78,214,706,214Z" transform="translate(-115.83 -8.71)" style="fill:#7eac1e"/><path d="M139.14,334A91,91,0,0,1,130,320c-1.15-6-5.76-10.53-7.15-16.56-2.86-12.42-1.52-25-1.85-37.47,1.92-.49,3.68-.85,5.7.23a57.42,57.42,0,0,0,10.43,4.55c11.58,3.46,23.13,7.34,33.9,12.57,11.18,5.42,24.24,3.71,34.75,10.67a7.07,7.07,0,0,0,5.31.91c3.76-.81,7.15-1.38,7.21-6.92,0-3.58-.77-9.13,5.67-9.77a2.85,2.85,0,0,0,1.76-2.19c-.43-4.15,2.79-6.42,4.93-8.84,3.48-3.91,1.43-5.45-1.95-6.79-4.15-1.65-5.12-8.24-11.08-7.14a8.23,8.23,0,0,1-.58-2.7c.15-2.63-1.05-4.18-3.16-5.71-16.56-12-32.71-24.63-49.49-36.39-3.38-2.37-7.41-4.42-9.4-8.5,1.65-3.62,4.75-6.17,6.91-9.47,8.21-12.51,16.09-25.4,28-34.87,4.07-3.22,7.59-7.45,13-8.66,3.1,4.08,6.07,8.27,9.33,12.23,11.57,14.08,23.25,28.08,34.86,42.13,3.1,3.75,7.27,6.71,8.82,11.65-2.78.33-5.58,1-8.36.93-7.12-.19-12.11,4.36-16.86,8.29-4.48,3.7-7.61,9.09-11.18,13.85-3.76,5-3.42,8.42.78,11.59,12,9.07,23.46,18.87,36,27.19,6.18,4.09,11.2,9.94,18.6,12.15-7.9,9-13.53,19.45-19,30a12.68,12.68,0,0,0-2.73-2c-7.48-2.91-14.94-5.89-22.53-8.52-7-2.44-13.93-5.16-21.2-6.87-3.17-.75-4.11.12-4.7,3-1.12,5.51-2.39,10.89-.86,16.59,2.11,7.82,2.53,16.31,9.76,21.83.36.28.18,1.27.25,1.93-12.9-.26-25.55-2.75-38.21-4.76-8.14-1.29-16.38-1.41-24.54-2.85-4.56-.81-9,.44-9.87-5.86Z" transform="translate(-115.83 -8.71)" style="fill:#e20000"/><path d="M463,460c3.2-.32,4.61-3.16,6.62-5,3.72-3.39,6.95-7.31,10.39-11,6.35-2,11.1,1,15.52,5a22.18,22.18,0,0,0,3.2,2.33c8.11,5.1,16.8,9.47,24.24,15.41,14.37,11.47,30.29,20.69,44.75,32,11.8,9.23,23.95,18.06,36.3,26.55,5,3.41,9.33,7.6,14.77,10.53,4,2.14,8.56,4.59,10.32,9.56-8.63,13.84-16,28.48-25.75,41.61-1.89.78-3.42,1.83-3.13,4.23l.06-.07c-2,.57-3.28,1.74-3.19,4l.07-.1a1.14,1.14,0,0,0-.95,1.26l0,.06c-4.75,2-7.53,6.45-11.52,9.41-1.54,1.14-2.51,3.1-4.73,3.26a16.23,16.23,0,0,1-2.26-1.92Q555.59,580,533.49,552.84c-6.79-8.35-13.1-17.13-20.42-25-9.28-10-16.91-21.18-26-31.26-5-5.58-9.41-11.72-14.08-17.6a14.74,14.74,0,0,0-5.48-7.89C463.86,468.18,462.22,464.65,463,460Z" transform="translate(-115.83 -8.71)" style="fill:#fc0016"/><path d="M706,214c-4.26,0-8.35-.2-10-5.29-.27-.84-1.44-2-2.09-2-4.88.47-7.15-5.09-11.85-4.95a2.68,2.68,0,0,1-2.57-2.1c-.6-7-6.81-6.89-11.22-8.51-5.49-2-6.55-3.16-4.13-8.26,1-2.08.46-2.63-1.48-3-1.75-.3-3.35-1.17-3.27-3.13.06-1.67,1.82-1.49,3-2,3.06-1.13,3.7-4.9.91-6.54a20.82,20.82,0,0,1-9.36-11c-.61-1.61-2.25-2.82-3.42-4.22-.62-.73-1.72-1.47-1-2.51.62-.89,1.84-.7,2.77-.29,7.06,3.12,14.47,5.06,21.9,7,2.49.67,4.62,2.63,7.1,3.46,1.6.54,3.89.87,5-1.08,1-1.73-.47-3.18-1.57-4.35-6.19-6.53-10.22-14.5-14.61-22.18-2.62-4.57-6.79-5.36-11.19-6.19,0-1.27.81-2.09,1.5-3,8.18-11.45,16.7-22.67,24.33-34.47,6.64-10.28,14.34-19.76,21.12-29.91,7-10.52,14.13-21,21.58-31.21C731,23.63,733.52,18,739.07,15c8.61,5.7,11.19,14.5,11.74,24,.71,12.16-2.76,23.67-6.52,35.05-4.79,14.5-11.45,28.27-16.81,42.55a37.17,37.17,0,0,0-2.61,10.07c-.27,3.24.88,5.14,4.31,5.32,17.56.94,31.84,19,21.15,39.45-5.87,11.2-14.63,19.7-24.26,27.43-5.82,4.67-12,8.92-18,13.36-3.07-2.1-1.71.86-2.09,1.83Z" transform="translate(-115.83 -8.71)" style="fill:#85ad23"/><path d="M739.07,15c-5.55,3-8.08,8.67-11.54,13.41C720.08,38.58,713,49.06,706,59.58c-6.78,10.15-14.48,19.63-21.12,29.91-7.63,11.8-16.15,23-24.33,34.47-.69,1-1.51,1.77-1.5,3h0c-2,.09-2,1.55-2,3-2,1.06-2.65,2.94-3,5-2,.11-2,1.55-2,3h0a1.82,1.82,0,0,0-2,2l-6,8-2,1c-2,.09-2,1.55-2,3-.84,1.45-1.2,3.26-3,4-1.43-.24-3.31,2-4.26-.64-2.37-6.4-8.89-9.17-12.52-14.5-1.37-2-3.53-3.24-5.45,0-1,1.68-2.4,1.4-3.69.09-5.49-5.54-5.44-17.72.33-23.58,2.23-2.26,2.29-4.65.49-6.54s-3.86-.3-5.54,1.26c-7.4,6.9-8.29,6.77-14.87-.75-1.14-1.29-1.9-2.36-1-3.88,1.1-2,2.7-1.38,4.31-.59s3.19,1.9,4.48.09c1.64-2.29,4.51-3.94,3.83-7.6-.52-2.74.73-4.56,3.85-4.36a3.31,3.31,0,0,0,3.76-2.55c2.6-8.44,8.31-14.66,14.89-20.1,1.78-1.48,2-3,2.55-5,1-4-4.1-4-4-6.26.28-5.21-4.09-6.74-6.57-9.69-.92-1.1-1.67-2-1.58-3.4a21.9,21.9,0,0,1,13.4,13.16c1.64,4.52,4.07,4.64,7.55,2.83,1.74-.91,3.32-2.14,5-3.22.41.75,1,1.22,1.8.71s.95-1.11,0-1.68c16.14-14.05,31-29.61,49.28-41.11,8.36-5.26,17.15-9.41,27.24-10C727.33,8.37,733.69,10.16,739.07,15ZM649.94,64.08c0-1.07-.34-2-1.64-1.89a2.14,2.14,0,0,0-2.14,2.22c0,1.23.56,2.33,2,2.18S649.88,65.31,649.94,64.08Zm-14.23,5c-.33-1.09-1.31-1.11-2.31-.92a1.26,1.26,0,0,0-1.06,1.8c.32,1,1.21,1,2,.92A1.39,1.39,0,0,0,635.71,69.09Z" transform="translate(-115.83 -8.71)" style="fill:#899d2a"/><path d="M616,48.05c-.09,1.43.66,2.3,1.58,3.4,2.48,2.95,6.85,4.48,6.57,9.69-.12,2.22,5,2.27,4,6.26-.51,2-.77,3.48-2.55,5C619,77.8,613.28,84,610.68,92.46A3.31,3.31,0,0,1,606.92,95c-3.12-.2-4.37,1.62-3.85,4.36.68,3.66-2.19,5.31-3.83,7.6-1.29,1.81-3,.63-4.48-.09s-3.21-1.39-4.31.59c-.85,1.52-.09,2.59,1,3.88,6.58,7.52,7.47,7.65,14.87.75,1.68-1.56,3.62-3.28,5.54-1.26s1.74,4.28-.49,6.54c-5.77,5.86-5.82,18-.33,23.58,1.29,1.31,2.7,1.59,3.69-.09,1.92-3.24,4.08-2,5.45,0,3.63,5.33,10.15,8.1,12.52,14.5,1,2.6,2.83.4,4.26.64-2.38,3.86-4.44,8-7.2,11.55-8,10.29-14.11,21.92-22.9,31.62-.62-1.15-1.28-2.28-1.88-3.44-9.17-17.85-22.23-32.42-37.88-44.79a1.79,1.79,0,0,0-2-1.21l.09-.06c-7.39-7.42-15.89-13.47-24.22-19.72-2.38-2.13-4.83-4.14-8-5.06l0,0c-2.08-2.07-4-4.31-7.06-5l0,0c-1.75-2.79-5.17-3.32-7.39-5.47,6.36-2.22,12-.58,17.32,3.14,1.9,1.33,3.82,2.64,5.71,4,7.11,5,10.33,4.49,14.8-3s7-16.06,9.51-24.46C570,81,574.88,68.48,583.5,57.64S604.71,43,616,48.05Z" transform="translate(-115.83 -8.71)" style="fill:#839e26"/><path d="M636.7,405.5c4.22,5.69,8.63,11.24,12.63,17.07,10.44,15.19,13,32.56,13.5,50.44-5.2-.52-9.63-3.28-14.37-5.08-14.25-5.44-28.38-11.17-42.59-16.69-7.35-2.85-14.7-5.77-22.21-8.14-6.37-2-12.53-4.49-18.66-7.11.75-2.4-3.61-2.87-2-5.89,2.28-4.25,5-8.6,5.79-13.21,1-6.12,3.78-11.72,4.5-17.89.24-2.09,2.4-3.33,4.57-4.16,2.93-1.13,5.91-.78,8.87-.82,2.19,0,4-.31,4.26-3,4.8.1,9.57-.11,14.37.91A62.23,62.23,0,0,0,624,393C628.88,396.48,631.73,402.08,636.7,405.5Z" transform="translate(-115.83 -8.71)" style="fill:#fc0016"/><path d="M487,436c4.07-5.89,8-11.87,12.26-17.63A53.84,53.84,0,0,0,503,412a178.6,178.6,0,0,1,24,9c.16,1.5-1.92,3.39.29,4.47,6,2.92,10.06,8.63,16.78,10.56,4.52,1.29,8.95,3.28,12,7.41,1.24,1.69,2.92,3.78,4.74,4.19,9.15,2.09,13.84,11.33,22.87,13.62,6,1.54,10.57,5.9,15.35,9.71,1.76,1.4,3.09,3.16,5.45,4.11,6.84,2.76,14,5.32,19.95,9.5,6.86,4.82,12.22,11.52,20.92,13.93,2.63.72,4.33.93,6.27-.75,1.13,2.22-2.13,5.07,1.56,6.28A146,146,0,0,1,640.75,527c-5-5.58-11.63-9-17.82-13.05-4.43-2.87-9.95-3.8-13.61-8-2.77-3.21-5.37-6.69-10.58-6.25-1.86.15-3.63-1.55-4.63-3.43A3.43,3.43,0,0,0,591,494c-4.09-.09-8-2.82-9.79-5.07-4.4-5.45-12-6-15.77-11.87a2.55,2.55,0,0,0-1.69-.94c-4.32-.47-7.63-2.88-11.11-5.19-3.77-2.51-6.29-7.52-12-6.47-.4.07-.9-1.07-1.47-1.23-4.31-1.24-5.41-6.55-9.44-7.75-7.36-2.2-13.09-7.34-19.85-10.62-2.95-1.43-6.64-2.25-8.92-5.07C497.22,435.18,493,432.45,487,436Z" transform="translate(-115.83 -8.71)" style="fill:#e7001b"/><path d="M605.58,280.46c.87,5,2.47,9,8.54,10,2.83.46,5,3.47,7.79,5a139.5,139.5,0,0,1,20.78,12.77c4.19,3.25,7.75,6.86,13.42,6.89-8,6.34-17.07,11.08-25.14,17.21-6.21,4.71-12.27,9.95-15.11,17.8-1.62,4.51-.22,7.75,3.52,10.13,4.74,3,9.84,5.11,15.61,5-.79,7.33-6.62,12.52-8.27,19.49a1.17,1.17,0,0,1-.73.64c-3.26.76-3.16,3.26-3,5.78-1.59-1.44-3.18-2.89-4.79-4.32-7-6.29-13.61-13.16-21.83-18l-.13.1c-.12-1.3-1.1-1.75-2.13-2.15-2.85-3.79-7.85-4.61-11-8-8.25-6.68-17.39-11.94-26.73-16.9,8.07-6.55,16.38-12.78,23.5-20.48A136.88,136.88,0,0,0,605.58,280.46Z" transform="translate(-115.83 -8.71)" style="fill:#6c8e1d"/><path d="M183,406c11,5.73,23,6.33,34.79,5.73,10.43-.53,20.91.16,31.28-1.27,1.5-.21,3,.13,3.64,1.07,3.25,4.86,6.73,9.8,7.17,15.8.25,3.39-3.84,4.91-5,8.11-1.28,3.43-5,4.4-8,6.25-4.77,2.94-10,4.13-14.72,6.79-7.14,4.07-13.75,9.25-22.19,10.54a5.89,5.89,0,0,0-3.68,2.34c-2,2.4-4.47,4.28-7.43,4.67-6.44.84-11.26,5.76-17.21,6.93-7.14,1.4-12.61,6.18-19.42,7.86-2.73.67-4.76,2.3-6.77,4-4.86,4.16-11,5.76-16.73,7.95-2.16.83-3.92,1.43-4,4.11-2.13-1-2.67-3.11-4.67-2.87l2.07-10.83a84.17,84.17,0,0,1,8.75-18.28c2.05.66,1.58,5.43,4.88,3.49,2.53-1.48,5.32-1.75,7.8-2.86,13.44-6,26.28-13.26,40.05-18.74,7.81-3.11,14.28-9.73,21.12-15.07,4.46-3.47,10.86-4.25,13.9-10.26a18,18,0,0,0-2.35-.43c-12.88-.69-25.81-.94-38.63-2.25-4.47-.45-9.68,1.1-13.58-2.72A66.07,66.07,0,0,1,183,406Z" transform="translate(-115.83 -8.71)" style="fill:#e7001b"/><path d="M139.14,334l2.24-4.43c.91,6.3,5.31,5.05,9.87,5.86,8.16,1.44,16.4,1.56,24.54,2.85,12.66,2,25.31,4.5,38.21,4.76,1.8.05,3.6.43,5.34.52,9.31.47,18.24,4,27.65,3.48-1.81,11.27-.71,22.62-1,33.93-10.42,1.22-20.82,2.6-31.26,3.57-4.34.41-8.69,1.85-13.12.62-20.71-8.32-38-21.33-52.49-38.23C145.63,342.75,141.77,338.82,139.14,334Z" transform="translate(-115.83 -8.71)" style="fill:#ed0000"/><path d="M518.67,114.49c2.22,2.15,5.64,2.68,7.39,5.47-2.81.53-5.22-.81-7.46-2C511.43,114,503.69,111.57,496,109a113,113,0,0,0-22.53-2.93c-17.81-.28-35.64-.09-53.46-.09-7.19-1.33-14.55-.28-21.7-1.25A218.57,218.57,0,0,0,347,104c-3.91.47-7.93.54-11.72,1.48-20.13,5-39.67,11.84-59.26,18.52-13.46,3.78-27.18,6.59-40.63,10.31-11.14,3.08-22.74,5.55-32.39,12.68-5.45,1.21-9,5.44-13,8.66-11.95,9.47-19.83,22.36-28,34.87-2.16,3.3-5.26,5.85-6.91,9.47-6.41,9.58-13.72,18.51-19.8,28.36A99.71,99.71,0,0,0,121,266c.33,12.5-1,25.05,1.85,37.47,1.39,6,6,10.52,7.15,16.56-6.7-9.05-11.4-18.91-13-30.2-4.15-28.55,3.19-53.91,20.35-76.87,10.14-13.57,19.83-27.49,29.41-41.47,13-18.92,29.9-32.56,52.17-38.62,35.51-9.66,70.75-20.23,106-30.88,19.55-5.9,39.84-5.58,60-3.64a516.07,516.07,0,0,0,63.39,1.93C472.82,99.62,496.71,102.16,518.67,114.49Z" transform="translate(-115.83 -8.71)" style="fill:#fc0016"/><path d="M487,436c6-3.55,10.22-.82,14,3.82,2.28,2.82,6,3.64,8.92,5.07,6.76,3.28,12.49,8.42,19.85,10.62,4,1.2,5.13,6.51,9.44,7.75.57.16,1.07,1.3,1.47,1.23,5.74-1.05,8.26,4,12,6.47,3.48,2.31,6.79,4.72,11.11,5.19a2.55,2.55,0,0,1,1.69.94c3.76,5.83,11.37,6.42,15.77,11.87,1.83,2.25,5.7,5,9.79,5.07a3.43,3.43,0,0,1,3.07,2.17c1,1.88,2.77,3.58,4.63,3.43,5.21-.44,7.81,3,10.58,6.25,3.66,4.24,9.18,5.17,13.61,8,6.19,4,12.78,7.47,17.82,13.05-4.54,5.73-6.82,12.87-11.63,18.43-1.76-5-6.35-7.42-10.32-9.56-5.44-2.93-9.8-7.12-14.77-10.53-12.35-8.49-24.5-17.32-36.3-26.55-14.46-11.32-30.38-20.54-44.75-32-7.44-5.94-16.13-10.31-24.24-15.41a22.18,22.18,0,0,1-3.2-2.33c-4.42-4-9.17-7-15.52-5a15,15,0,0,1,5-5C487,438.91,487,437.46,487,436Z" transform="translate(-115.83 -8.71)" style="fill:#f2001a"/><path d="M653.17,504c-3.69-1.21-.43-4.06-1.56-6.28-1.94,1.68-3.64,1.47-6.27.75-8.7-2.41-14.06-9.11-20.92-13.93-5.95-4.18-13.11-6.74-19.95-9.5-2.36-.95-3.69-2.71-5.45-4.11-4.78-3.81-9.33-8.17-15.35-9.71-9-2.29-13.72-11.53-22.87-13.62-1.82-.41-3.5-2.5-4.74-4.19-3-4.13-7.47-6.12-12-7.41-6.72-1.93-10.82-7.64-16.78-10.56-2.21-1.08-.13-3-.29-4.47l5,2c.1,2,1.55,2,3,2a9.1,9.1,0,0,1,3.28.78c8.87,3.48,17.8,6.83,26.71,10.22,6.13,2.62,12.29,5.09,18.66,7.11,7.51,2.37,14.86,5.29,22.21,8.14,14.21,5.52,28.34,11.25,42.59,16.69,4.74,1.8,9.17,4.56,14.37,5.08C662.3,484.18,658.41,494.32,653.17,504Z" transform="translate(-115.83 -8.71)" style="fill:#df001d"/><path d="M174,416.05c3.9,3.82,9.11,2.27,13.58,2.72,12.82,1.31,25.75,1.56,38.63,2.25a18,18,0,0,1,2.35.43c-3,6-9.44,6.79-13.9,10.26-6.84,5.34-13.31,12-21.12,15.07-13.77,5.48-26.61,12.7-40.05,18.74-2.48,1.11-5.27,1.38-7.8,2.86-3.3,1.94-2.83-2.83-4.88-3.49,7.05-15.6,17-29.35,27.59-42.61C170.15,420.1,172.13,418.12,174,416.05Z" transform="translate(-115.83 -8.71)" style="fill:#f2001a"/><path d="M623,391.11c-.12-2.52-.22-5,3-5.78a1.17,1.17,0,0,0,.73-.64c1.65-7,7.48-12.16,8.27-19.49,8.72.87,17.52,1.3,26,3.79,9.09,2.67,10.44,7.36,4.53,14.92-7.66,9.81-17.83,16.24-28.82,21.59-5-3.42-7.82-9-12.75-12.49C623.62,392.38,623.29,391.74,623,391.11Z" transform="translate(-115.83 -8.71)" style="fill:#839e26"/><path d="M201.66,385.12c4.43,1.23,8.78-.21,13.12-.62,10.44-1,20.84-2.35,31.25-3.57l.94.1c-.55,3.86.86,7.54,1.09,11.34.26,4.2-1.57,5.7-5.52,5.64-12.49-.19-25.09,2.4-37.42-1.88-1.93-.68-4.29-.13-6.45-.14-1.69,0-3.46.17-3.75-2.2C196.13,390.09,201.59,389.7,201.66,385.12Z" transform="translate(-115.83 -8.71)" style="fill:#be081e"/><path d="M600.24,591.24c-.29-2.4,1.24-3.45,3.13-4.23A10.92,10.92,0,0,1,600.24,591.24Z" transform="translate(-115.83 -8.71)" style="fill:#be081e"/><path d="M597.11,595.16c-.09-2.25,1.17-3.42,3.19-4A8.46,8.46,0,0,1,597.11,595.16Z" transform="translate(-115.83 -8.71)" style="fill:#be081e"/><path d="M706,214c.38-1-1-3.93,2.09-1.83Z" transform="translate(-115.83 -8.71)" style="fill:#7eac1e"/><path d="M643.73,59.85c.93.57.77,1.2,0,1.68s-1.39,0-1.8-.71C642.2,59.91,643,59.87,643.73,59.85Z" transform="translate(-115.83 -8.71)" style="fill:#839e26"/><path d="M596.23,596.32a1.14,1.14,0,0,1,.95-1.26Z" transform="translate(-115.83 -8.71)" style="fill:#be081e"/><path d="M308,518c0-.33,0-.67,0-1,4.36-4,9.73-4.47,14.67-2.42,6.26,2.59,12.87,3.86,19.18,6.14,2.21.8,4.74,1.64,7.11-.15a1.71,1.71,0,0,1,2.63.28,3.11,3.11,0,0,1,0,2.86c-1.08,3.07-3.71,2.1-5.91,2.29-1,.09-2.21-.06-2.17,1.35a1.68,1.68,0,0,0,1.76,1.49c4.23-.28,3.5,2.66,3.82,5.3.29,2.31-1.87,5.48,1.91,6.85,0,3.33,0,6.66,0,10-3.92,1.64-1.77,5.25-2.26,7.82-2.2,11.47-3.93,23-5.69,34.59-2.29,15-4.45,30-6.66,44.92Q334.7,649.7,333,661.09h-2.92c-1.12-.06-2.28-.28-3.09.82-14.44-1.59-29-1.67-43.43-3.06-12.42-1.2-25-2.52-36.59-7.84,4.91-11,9.71-22.14,14.75-33.12,8.32-18.11,16.8-36.15,25.21-54.21L298,540c4.4-1.64,4-5.39,4-9,0-.33,0-.66,0-1,1.16,0,2.61-.4,3.43.14,5.78,3.82,6.69.33,7.24-4.43.24-2.12.41-3.66-2.3-3.73C307.49,521.92,308.12,519.74,308,518Z" transform="translate(-115.83 -8.71)" style="fill:#fc0016"/><path d="M132,539c4.86-1.39,8.53-4.91,12.58-7.58,10.87-7.2,21.3-15.08,31.89-22.7q22.78-16.38,45.58-32.75c1.18-.84,2.23-2.08,3.91-2,2.4-.08,3,.64,2.53,3.3a9.39,9.39,0,0,0,8.66,10.61c2.74.09,3.55,1.14,4.24,3.6,1.16,4.15,4.43,6.95,8.12,8.68,5.67,2.66,6.67,6.18,2.8,11.29-1.3,1.72-3.69,2.38-4.26,4.73-.77,3.14-2.05,5-5.42,2.29a1.86,1.86,0,0,0-3,.7c-.84,1.87.92,1.56,1.91,1.9,3.05,1.06,2.86,2.82.92,4.83-.8.83-1.93,1.4-2.53,2.34a210.24,210.24,0,0,1-20.53,26.94,47,47,0,0,0-5.08,6.57c-4.55,7.43-11,13.45-16.43,20.26a196.37,196.37,0,0,1-16,18c-14.23-12.48-28.26-25.19-39.65-40.4C137.74,553.48,132.85,547.2,132,539Z" transform="translate(-115.83 -8.71)" style="fill:#fc0016"/><path d="M399,487c9.31-2.69,19.17-3.4,28-7.78,1.08-.54,2.62-.17,3.95-.22a14.08,14.08,0,0,0,1.06,5.75c3.94,8.5,7.14,17.35,11.35,25.7,4.84,9.61,8.23,19.82,12.86,29.51,6.61,13.86,12.91,27.86,19.1,41.91,5.67,12.89,11.31,25.81,16.4,38.93,2.36,6.09,6.27,11.57,7.24,18.2-8.39,3.55-16.33,8.11-25,11-1.61-1.6-1.81-.34-2,1h0a25.86,25.86,0,0,0-2.93.44c-1.44.36-3,1.17-3.84-.76-.5-1.2-.75-2.88.18-3.81,1.46-1.46,2.25.51,3.18,1.19,1.86,1.36,3.2.13,4.41-.88,1.48-1.23.88-2.6-.21-3.9-1.61-1.91-3.07-3.4-6.06-3.51-4.12-.17-6.69-5.57-4-8.53,2.21-2.44,2.24-3.92.34-6.2-1-1.15-.91-2.77-1.2-4.24-.6-3.09-1.14-6.65-4-8.29-7.06-4-7.72-11-8.89-17.78-.16-1,0-2.36-1.17-2.46-5.38-.46-5.07-4.25-4.81-8,.15-2.27-.88-3.54-2.72-4.83a11.93,11.93,0,0,1-5.51-9.49c-.23-3.3-.65-8.13-4-9.14-6-1.83-5.61-6.15-5.77-10.44-.12-3.07-.41-5.64-3.91-6.56-2.05-.54-2.17-2.26-2.16-4,0-2.5.08-5-.05-7.48-.12-2.28-.69-4.47-3.63-4.36-3.25.13-4.59-1.36-4.33-4.5a4.58,4.58,0,0,0-1.86-3.9,16.36,16.36,0,0,1-4.49-7C402.87,507.73,402,502.08,396,500c0-1.33,0-2.66,0-4C400.28,494.1,397.74,489.92,399,487Z" transform="translate(-115.83 -8.71)" style="fill:#fc0016"/><path d="M351,551c0-3.33,0-6.66,0-10,1.41-1.12,1.52-2.82,2.13-4.35,1.53-3.85.63-7.89,1.34-11.81A274.78,274.78,0,0,0,359,488c6.6-.06,13-.07,19.11,3.62,2.37,1.43,2.67,2.53,2.95,4.73.71,5.43-3.39,10.48-1.08,16,.44,1,.28,2.4.85,3.34,2.85,4.75,4,9.63,2.27,15.11a5.37,5.37,0,0,0,.78,3.79c1.91,3.27,1.54,5.88.09,9.59a17,17,0,0,0,.5,13.67c1.43,2.82,1.27,5.51,1.06,8.6-.4,5.85-2.68,12.07,2.53,17.42,2.59,2.66.91,7.43-2.65,9-1.08.49-2.28.52-2.29,2.08s1,1.81,2.27,2.08c3.61.79,3.18,4.25,3.39,6.49,1.61,17.2,3.05,34.43,4.1,51.68.31,5.06-1.26,10.3,4.55,13.44.6.32.39,2.15.56,3.27-9.41-.76-18.81-1.67-28-4,.24-2.51-.28-4.1-3.42-4-3.92.08-5.23-2.37-5.64-6.1-1.09-10,.09-20-2.51-30.09-2.51-9.76-2.85-20.28-2.49-30.61.23-6.45.62-13-1-19.34-.6-2.41-2.54-5.49-1.68-7.08C357.26,563.37,352,557.49,351,551Z" transform="translate(-115.83 -8.71)" style="fill:#e7001b"/><path d="M463,460c-.79,4.64.85,8.17,4.52,11.1A14.74,14.74,0,0,1,473,479c-3.07-.94-5.2-.74-3.37,3.23.85,1.84-.64,3.52.09,5.57,3.38-1.73,5,.56,7,2.64,4.81,4.87,2.09,11.67,4.85,17.3,1.75,3.56,2.44,7.29,6.31,9.23,3.09,1.55,4.77,3.88,5.89,7.35,1.46,4.5,1.72,10.29,8.25,11.51,1.42.27,1.51,2.29,2,3.7,1.28,3.5,2.26,7.73,4.83,10,4.81,4.26,5.35,10,5.75,15.13.43,5.58,3.22,8.77,7.2,11,3,1.62,3.89,3.27,4.28,6.4.48,3.85,1.25,8,6.61,8.49a3.29,3.29,0,0,1,3,2.35c1,4.84,4.06,8.94,5.55,13.24,2,5.83,4.88,12.17,3.68,18.9a166.4,166.4,0,0,1-22,7c-.12-1.15.18-2.6-.41-3.4-4.19-5.75-6.56-12.59-10.83-18.22A88.92,88.92,0,0,1,504,597.29a80.57,80.57,0,0,0-8.74-12.84,11.4,11.4,0,0,1-2.16-3.87,42.15,42.15,0,0,0-11-19,7.76,7.76,0,0,1-2.21-4.4c-.7-4.94-3.13-8.73-6.29-12.6-2.23-2.72-5.09-5.39-6.21-8.91-2.84-8.89-7.77-16.58-13.33-23.89-1.8-2.37-2.43-4.91-3.21-7.63-1.73-6.09-7.31-10.2-8.9-16.46-.08-.31-.82-.53-1.29-.66A2,2,0,0,1,439,484.9c0-3.55-2.68-5.1-5-6.9,2.5-4.05,7.41-4.22,11-6.62,5.51-3.69,12.87-4.58,16.62-11.06C461.77,460,462.53,460.11,463,460Z" transform="translate(-115.83 -8.71)" style="fill:#e7001b"/><path d="M182,600a196.37,196.37,0,0,0,16-18c5.39-6.81,11.88-12.83,16.43-20.26a47,47,0,0,1,5.08-6.57A210.24,210.24,0,0,0,240,528.26c.6-.94,1.73-1.51,2.53-2.34,1.94-2,2.13-3.77-.92-4.83-1-.34-2.75,0-1.91-1.9a1.86,1.86,0,0,1,3-.7c3.37,2.71,4.65.85,5.42-2.29.57-2.35,3-3,4.26-4.73,3.87-5.11,2.87-8.63-2.8-11.29-3.69-1.73-7-4.53-8.12-8.68-.69-2.46-1.5-3.51-4.24-3.6a9.39,9.39,0,0,1-8.66-10.61c.45-2.66-.13-3.38-2.53-3.3,4.88-5,11-8.27,16.4-12.59,4.72-3.79,10-6.94,14.49-11,3.75-3.37,8.56-5,12.22-8.39a3,3,0,0,1,4.83.44C280,450.7,288.23,456.61,296,463c.28,2.06-1.05,3.29-2.19,4.77-8.94,11.54-18.14,22.87-24.57,36.2-1.56,3.23-3.1,7.16-5.11,9.44-4.09,4.65-5.41,10.68-9.39,15.18-1.38,1.56-3.84,2.76-3.61,5.15.36,3.78-2.11,5.69-4.28,8-1,1.06-2.62,2.33-2.6,3.49.06,6-3.74,10.82-7,14.34-6.79,7.25-7.23,17.75-14.32,24.51-1.42,1.34-3,2.94-3.53,4.71-2.42,8.4-9,14.61-11.74,22.83-1.56,4.69-3.94,8.31-9.6,4.42A155,155,0,0,1,182,600Z" transform="translate(-115.83 -8.71)" style="fill:#f2001a"/><path d="M198,616c5.66,3.89,8,.27,9.6-4.42,2.74-8.22,9.32-14.43,11.74-22.83.51-1.77,2.11-3.37,3.53-4.71,7.09-6.76,7.53-17.26,14.32-24.51,3.29-3.52,7.09-8.32,7-14.34,0-1.16,1.58-2.43,2.6-3.49,2.17-2.26,4.64-4.17,4.28-8-.23-2.39,2.23-3.59,3.61-5.15,4-4.5,5.3-10.53,9.39-15.18,2-2.28,3.55-6.21,5.11-9.44,6.43-13.33,15.63-24.66,24.57-36.2,1.14-1.48,2.47-2.71,2.19-4.77,4.33,2.65,9.23,4.55,11.2,10,1,2.8.65,5.18-1.68,6.56-2.64,1.56-3.44,3.77-4,6.44-1.21,5.32-6.68,8.32-7.78,13.65-1.82,8.83-10.74,14.33-11,23.85,0,.3-.2.78-.42.87-6,2.53-5.88,9.88-10.55,13.51a15.2,15.2,0,0,0-4.36,5.37c-5.17,10.48-11.92,20.37-16.22,31-5.71,14.11-17.34,24.3-22.46,38.42-1.84,5.08-3.6,10.08-8.06,13.67-.74.6-.6,2.51-.57,3.8.06,2.2-1,3-3,2.88C210.22,627.84,203.49,622.63,198,616Z" transform="translate(-115.83 -8.71)" style="fill:#e7001b"/><path d="M396,500c6,2.09,6.84,7.74,8.61,12.63a16.36,16.36,0,0,0,4.49,7,4.58,4.58,0,0,1,1.86,3.9c-.26,3.14,1.08,4.63,4.33,4.5,2.94-.11,3.51,2.08,3.63,4.36.13,2.48.06,5,.05,7.48,0,1.73.11,3.45,2.16,4,3.5.92,3.79,3.49,3.91,6.56.16,4.29-.22,8.61,5.77,10.44,3.3,1,3.72,5.84,4,9.14a11.93,11.93,0,0,0,5.51,9.49c1.84,1.29,2.87,2.56,2.72,4.83-.26,3.73-.57,7.52,4.81,8,1.18.1,1,1.49,1.17,2.46,1.17,6.81,1.83,13.74,8.89,17.78,2.87,1.64,3.41,5.2,4,8.29.29,1.47.23,3.09,1.2,4.24,1.9,2.28,1.87,3.76-.34,6.2-2.69,3-.12,8.36,4,8.53,3,.11,4.45,1.6,6.06,3.51,1.09,1.3,1.69,2.67.21,3.9-1.21,1-2.55,2.24-4.41.88-.93-.68-1.72-2.65-3.18-1.19-.93.93-.68,2.61-.18,3.81.82,1.93,2.4,1.12,3.84.76A25.86,25.86,0,0,1,472,651a59.16,59.16,0,0,1-20,9c-1.05-.16-2.35-.69-1.82-1.77,1.71-3.46-.57-5.22-2.63-7.16a14.1,14.1,0,0,1-2.94-4.49c-2.52-5.36-4.2-11.1-7.74-16-4-5.5-5.38-12.3-8.34-18.37s-6.08-12.22-9.14-18.14c-2.55-4.93-3.51-10.44-6.51-15-2.35-3.55-2.26-9.14-7.91-10.11v-2c1.37-1.76,1.8-3.29-1-4,1.43-5.66-.77-11.09-1.28-16.59-1.31-13.92-5-27.55-5.8-41.56A38.64,38.64,0,0,0,396,500Z" transform="translate(-115.83 -8.71)" style="fill:#f2001a"/><path d="M545,625c1.2-6.73-1.66-13.07-3.68-18.9-1.49-4.3-4.53-8.4-5.55-13.24a3.29,3.29,0,0,0-3-2.35c-5.36-.46-6.13-4.64-6.61-8.49-.39-3.13-1.33-4.78-4.28-6.4-4-2.18-6.77-5.37-7.2-11-.4-5.16-.94-10.87-5.75-15.13-2.57-2.27-3.55-6.5-4.83-10-.51-1.41-.6-3.43-2-3.7-6.53-1.22-6.79-7-8.25-11.51-1.12-3.47-2.8-5.8-5.89-7.35-3.87-1.94-4.56-5.67-6.31-9.23-2.76-5.63,0-12.43-4.85-17.3-2.06-2.08-3.67-4.37-7-2.64-.73-2.05.76-3.73-.09-5.57-1.83-4,.3-4.17,3.37-3.23,4.67,5.88,9.06,12,14.08,17.6,9.07,10.08,16.7,21.31,26,31.26,7.32,7.85,13.63,16.63,20.42,25Q555.6,580,577.76,607.13a16.23,16.23,0,0,0,2.26,1.92A82.82,82.82,0,0,1,545,625Z" transform="translate(-115.83 -8.71)" style="fill:#df001d"/><path d="M434,478c2.36,1.8,5.06,3.35,5,6.9a2,2,0,0,0,1.68,2.15c.47.13,1.21.35,1.29.66,1.59,6.26,7.17,10.37,8.9,16.46.78,2.72,1.41,5.26,3.21,7.63,5.56,7.31,10.49,15,13.33,23.89,1.12,3.52,4,6.19,6.21,8.91,3.16,3.87,5.59,7.66,6.29,12.6a7.76,7.76,0,0,0,2.21,4.4,42.15,42.15,0,0,1,11,19,11.4,11.4,0,0,0,2.16,3.87A80.57,80.57,0,0,1,504,597.29a88.92,88.92,0,0,0,7.72,13.05c4.27,5.63,6.64,12.47,10.83,18.22.59.8.29,2.25.41,3.4-8.14,1.87-15.73,5.6-24,7-1-6.63-4.88-12.11-7.24-18.2-5.09-13.12-10.73-26-16.4-38.93-6.19-14-12.49-28-19.1-41.91-4.63-9.69-8-19.9-12.86-29.51-4.21-8.35-7.41-17.2-11.35-25.7A14.08,14.08,0,0,1,431,479C431.71,477.82,432.9,478,434,478Z" transform="translate(-115.83 -8.71)" style="fill:#f2001a"/><path d="M351,551c1,6.5,6.27,12.38,2.29,19.72-.86,1.59,1.08,4.67,1.68,7.08,1.59,6.38,1.2,12.89,1,19.34-.36,10.33,0,20.85,2.49,30.61,2.6,10.12,1.42,20.11,2.51,30.09.41,3.73,1.72,6.18,5.64,6.1,3.14-.06,3.66,1.53,3.42,4-11-.8-21.44-5.05-32.54-5-1.88,0-2.68-1.92-4.42-1.92q1.68-11.37,3.35-22.76c2.21-15,4.37-30,6.66-44.92,1.76-11.55,3.49-23.12,5.69-34.59C349.22,556.24,347.07,552.63,351,551Z" transform="translate(-115.83 -8.71)" style="fill:#f2001a"/><path d="M405,569c5.65,1,5.56,6.56,7.91,10.11,3,4.52,4,10,6.51,15,3.06,5.92,6.19,12.09,9.14,18.14s4.39,12.87,8.34,18.37c3.54,4.94,5.22,10.68,7.74,16a14.1,14.1,0,0,0,2.94,4.49c2.06,1.94,4.34,3.7,2.63,7.16-.53,1.08.77,1.61,1.82,1.77-4.83,4.39-11.16,5.13-17,7,.89-3.19.08-6-1.37-8.94-5.43-11.14-11.24-22.09-16.57-33.29-6.5-13.66-8.4-28-9.95-42.6C406.64,577.72,404.09,573.63,405,569Z" transform="translate(-115.83 -8.71)" style="fill:#e7001b"/><path d="M472,651c.17-1.32.37-2.58,2-1A2.13,2.13,0,0,1,472,651Z" transform="translate(-115.83 -8.71)" style="fill:#f2001a"/><path d="M327,661.9c.81-1.1,2-.88,3.09-.82C329.28,662.13,328.15,662,327,661.9Z" transform="translate(-115.83 -8.71)" style="fill:#f2001a"/><path d="M247,381l-.94-.1c.25-11.31-.85-22.66,1-33.93.16-1.3.22-2.62.5-3.9,1.94-9,5.23-17.54,8.52-26.09,5.46-10.56,11.09-21,19-30,1.88-2.05,3.82-4,5.63-6.15,5.13-6,11.77-10.36,17.38-15.83,9.8-5.72,19.45-11.72,30-16,1.72-.52,3.49-.92,5.14-1.6,9.6-3.91,19.63-6,29.84-7.39,9.69-1.89,19.48-.65,29.23-.95,2.61-.08,5.33-.49,7.78.95,1.64.16,3.28.28,4.91.49,9.7,1.24,18.73,5,28.09,7.52,7.85,3.82,16.12,6.82,23.22,12.1,2.09,1.56,3.87,3.73,6.77,3.93a9.29,9.29,0,0,0,3.1,3.07A125.48,125.48,0,0,1,486,286a179.84,179.84,0,0,1,18,29c-.25,2.26.75,4.16,1.54,6.19,3.24,8.33,6.31,16.73,6.5,25.85q0,.48-.06,1c-7.53-.48-14.52,3-22,3-3.62.29-7.42-.88-10.86.65A31.62,31.62,0,0,1,467.61,354c-3.93.22-5.61-1.75-6.54-5.3-3.57-13.55-7.49-26.87-16.76-38-8.07-9.72-17-18.32-28.45-23.6-12.8-5.92-26.14-9.26-40.74-8.41A86.6,86.6,0,0,0,344,286.21a77.17,77.17,0,0,0-35.46,32.14c-3.31,5.73-6.61,11.78-8.19,18.12-2.75,11-3.72,22.5-4.21,33.91-.15,3.33-1.52,5.1-4.51,5.48C282.4,377,273.19,378,264,379,258.22,378.84,252.84,381.94,247,381Z" transform="translate(-115.83 -8.71)" style="fill:#f2001a"/><path d="M264,379c9.19-1,18.4-2,27.58-3.15,3-.38,4.36-2.15,4.51-5.48.49-11.41,1.46-22.86,4.21-33.91,1.58-6.34,4.88-12.39,8.19-18.12A77.17,77.17,0,0,1,344,286.21a86.6,86.6,0,0,1,31.17-7.52c14.6-.85,27.94,2.49,40.74,8.41,11.41,5.28,20.38,13.88,28.45,23.6,9.27,11.17,13.19,24.49,16.76,38,.93,3.55,2.61,5.52,6.54,5.3a31.62,31.62,0,0,0,11.53-2.39c3.44-1.53,7.24-.36,10.86-.65-.94,6.25-3.37,12.2-1.28,18.93,1.16,3.72.76,8.2-.53,12.32a18.66,18.66,0,0,0-1.2,7.83c.42,3.71-.35,6.58-4,8.78-3.4,2-2.47,6.42-2.72,9.63-.35,4.45-1.95,6.54-6.24,6.47-2.39,0-3.25,1.45-4.61,3-3.24,3.78-4.08,8.85-7.34,12.55a3.75,3.75,0,0,0-1,2.21c0,4.16-2.69,5.92-6.14,6.73-7.63,1.79-12.74,6.84-17.13,12.87-1.06,1.46-2.6,2.6-4.14,2.45-4.89-.49-8.87,2.39-13.38,3.17a5.66,5.66,0,0,0-2.33.75c-9.5,7-20.44,8.33-31.77,8.29a10.06,10.06,0,0,1-4.76-1.29c-1.23-.65-2.66-1.16-3.82-.4-7.89,5.24-15.69,2.5-23.23-.54C350,463,345.67,462.88,341.2,463c-2.72.09-4.95-.41-6.23-3.09a7.39,7.39,0,0,0-4.54-3.7c-9.35-3.12-17-8.76-23.61-15.87-2-2.11-4.57-2.61-7.34-2.37-2.58.24-3.49-.89-3.53-3.47-.08-6.22-2.84-10.68-8.12-14.42-3.62-2.57-7.51-5.5-8.83-10.73-.83-3.31-3.64-6.17-5.66-9.11a11.21,11.21,0,0,1-2.33-7.8c.48-5.48-1.17-9.77-6.53-12.11C264.18,380.23,264.15,379.47,264,379Zm119.35,71.26c4.55.7,11.87-1.43,19.31-3.28a67.12,67.12,0,0,0,33.17-19.86c7.1-7.67,14.17-15.74,17.72-26.53,3.76-11.42,6.89-22.68,7.58-34.72.34-5.75-2-10.62-3.13-15.9a93.63,93.63,0,0,0-15.28-34.48,80.86,80.86,0,0,0-15.81-17.05,67,67,0,0,0-18.87-11,86.79,86.79,0,0,0-38.46-4.72c-16,1.59-29.22,8.37-41.22,18-10.37,8.35-16.5,20-22.51,31.62-2,3.84-.07,7.88-2,11.3-1.84,3.24-2.53,6.61-3.12,10.27-4,24.31,1.55,46.71,16.74,65.43C333.18,438.8,354.14,450.23,383.35,450.27Z" transform="translate(-115.83 -8.71)" style="fill:#e7001b"/><path d="M532,423l-5-2a178.6,178.6,0,0,0-24-9c-.17-4.94,2.3-9.12,4.06-13.46,1-2.46,2.09-4.81,1.95-7.53,6.7,1.8,11.13-4.76,17.67-4.68A29,29,0,0,0,539,384c4,.19,7.93,1.56,12,1,.56.31,1.11.88,1.67.9,10.86.37,21.49,3.12,32.38,3.12a8.88,8.88,0,0,1,6,2c-.21,2.72-2.07,3-4.26,3-3,0-5.94-.31-8.87.82-2.17.83-4.33,2.07-4.57,4.16-.72,6.17-3.46,11.77-4.5,17.89-.78,4.61-3.51,9-5.79,13.21-1.62,3,2.74,3.49,2,5.89-8.91-3.39-17.84-6.74-26.71-10.22A9.1,9.1,0,0,0,535,425C534.9,423,533.45,423,532,423Z" transform="translate(-115.83 -8.71)" style="fill:#f2001a"/><path d="M512,348q0-.48.06-1l7-1.07a2.18,2.18,0,0,0,2-.93l3,0,32.32-3.16c9.34,5,18.48,10.22,26.73,16.9-1.08,3.67-4.57,4.12-7.38,5.05-12.58,4.17-26,4.33-38.77,7.73-6.52,1.73-13.76,1.43-20.67,2-3,.23-3.18-2.72-3.23-5.17C512.86,361.54,513.63,354.71,512,348Z" transform="translate(-115.83 -8.71)" style="fill:#be081e"/><path d="M359,488a274.78,274.78,0,0,1-4.53,36.84c-.71,3.92.19,8-1.34,11.81-.61,1.53-.72,3.23-2.13,4.35-3.78-1.37-1.62-4.54-1.91-6.85-.32-2.64.41-5.58-3.82-5.3a1.68,1.68,0,0,1-1.76-1.49c0-1.41,1.21-1.26,2.17-1.35,2.2-.19,4.83.78,5.91-2.29a3.11,3.11,0,0,0,0-2.86,1.71,1.71,0,0,0-2.63-.28c-2.37,1.79-4.9.95-7.11.15-6.31-2.28-12.92-3.55-19.18-6.14C317.75,512.54,312.38,513,308,517c2.11-5.89,6.31-10.71,8.36-16.67,1.93-5.58,4.41-11,6.5-16.49,1.26-3.32,2.33-4.78,6.73-3.37,9.18,2.94,18.27,6.72,28.2,6.7C358.21,487.18,358.6,487.72,359,488Z" transform="translate(-115.83 -8.71)" style="fill:#f2001a"/><path d="M591,391a8.88,8.88,0,0,0-6-2c-10.89,0-21.52-2.75-32.38-3.12-.56,0-1.11-.59-1.67-.9.52-2.83,2.76-2.3,4.28-1.67a7.54,7.54,0,0,0,7.12-.85c5.76-4,12.56-4,18.87-5.2s11.46-3.14,15.06-8.51c8.22,4.86,14.79,11.73,21.83,18,1.61,1.43,3.2,2.88,4.79,4.32.34.63.67,1.27,1,1.9a62.23,62.23,0,0,1-18.58-1.11C600.57,390.88,595.8,391.09,591,391Z" transform="translate(-115.83 -8.71)" style="fill:#e7011a"/><path d="M539,384a29,29,0,0,1-12.32,2.33c-6.54-.08-11,6.48-17.67,4.68-.2-3,2.6-5.25,2.2-8.45-.17-1.38,1.44-1.53,2.63-1.55a38.1,38.1,0,0,1,5.45,0C525.87,381.94,532.43,383,539,384Z" transform="translate(-115.83 -8.71)" style="fill:#e7011a"/><path d="M308,518c.11,1.73-.52,3.91,2.37,4,2.71.07,2.54,1.61,2.3,3.73-.55,4.76-1.46,8.25-7.24,4.43-.82-.54-2.27-.12-3.43-.14C304.48,526.24,304.42,521.22,308,518Zm.62,7.51c-.3-.27-.67-.87-1.19-1.06-.68-.25-1.26.14-1.26,1s.28,1.3,1.07,1.37S308.56,526.73,308.63,525.52Z" transform="translate(-115.83 -8.71)" style="fill:#f2001a"/><path d="M399,487c-1.27,2.91,1.27,7.09-3,9C393.74,489.85,394.49,487.59,399,487Z" transform="translate(-115.83 -8.71)" style="fill:#f2001a"/><path d="M302,531c0,3.61.4,7.36-4,9C299.24,537,299,533.24,302,531Z" transform="translate(-115.83 -8.71)" style="fill:#f2001a"/><path d="M404,563c2.8.72,2.37,2.25,1,4C403.53,566,404.14,564.38,404,563Z" transform="translate(-115.83 -8.71)" style="fill:#e7001b"/><path d="M487,436c0,1.46,0,2.91-2,3C485,437.54,485,436.09,487,436Z" transform="translate(-115.83 -8.71)" style="fill:#e7001b"/><path d="M594.07,366.72c1,.4,2,.85,2.13,2.15A2.46,2.46,0,0,1,594.07,366.72Z" transform="translate(-115.83 -8.71)" style="fill:#e7011a"/><path d="M463,264c-2.9-.2-4.68-2.37-6.77-3.93-7.1-5.28-15.37-8.28-23.22-12.1,4.92-10.67,10.15-21.18,14.47-32.15,1.88-4.75,3.22-10.22,7.52-13.84,5.56-.08,9.41,4.18,14.14,6.12a63.64,63.64,0,0,1,9.52,4.44c5.18,3.23,10.3,6.86,17,7-2.25-5.53-1.21-8.16,3.5-7.32,6.74,1.21,9.54-4.19,13.46-7.05,5.47-4,9.51-10,13.81-15.18,10.57-12.82,22-24.89,32.17-38,2.27-2.93,4.26-2.15,6.67-2.3l-.09.06c.22,1.14,1.08,1.22,2,1.21,15.65,12.37,28.71,26.94,37.88,44.79.6,1.16,1.26,2.29,1.88,3.44,0,.61,0,1.22,0,1.83a15.06,15.06,0,0,0-2.64,1.21c-10.37,7.34-20.76,14.62-31,22.1-8.91,6.49-18.17,12.54-25.82,20.64-1.79,1.89-5.41,2.09-6.29,4.63-1.69,4.88-5.27,4.66-9.13,4.41h0c1.86-2.09,3.89-4.06,5.53-6.31,1.51-2.07,2.57-4.74.54-6.87a14.07,14.07,0,0,1-3.53-7.39,9.07,9.07,0,0,0-3.23-5.51c-4.25-3.17-7.14-7.72-11.15-11.06-5.89-4.88-9.25-6.41-12.83-2.8-8.5,8.55-15.87,18.08-24.05,26.88C476.29,248.45,470.92,257.36,463,264Z" transform="translate(-115.83 -8.71)" style="fill:#e20000"/><path d="M532,254c3.86.25,7.44.47,9.13-4.41.88-2.54,4.5-2.74,6.29-4.63,7.65-8.1,16.91-14.15,25.82-20.64,10.26-7.48,20.65-14.76,31-22.1A15.06,15.06,0,0,1,606.9,201c3.52,7.69,3.39,16.08,4.67,24.21,2.86,18.13.7,35.68-5.69,52.8-1.46,1.66-3.47-.47-5.1.82-3.79,3-8.53,3.69-12.93,5.27-5.47,1.95-11.48,2.84-16.52,4.91-8.59,3.54-17.5,5.72-26.18,8.74-2.27.79-4.5-.42-4.75-2.43-.78-6.13-9.1-9.64-5.82-17.07a.9.9,0,0,0-.36-.82c-4.88-1.58-4-6.93-6.54-10s-1-3.6,2-3.44c2.52.13,4.45-1,2.84-3.4S532.13,256.18,532,254Z" transform="translate(-115.83 -8.71)" style="fill:#ed0000"/><path d="M532,254c.13,2.18-1.14,4.19.49,6.6s-.32,3.53-2.84,3.4c-2.93-.16-4.41.52-2,3.44s1.66,8.42,6.54,10a.9.9,0,0,1,.36.82c-3.28,7.43,5,10.94,5.82,17.07.25,2,2.48,3.22,4.75,2.43,8.68-3,17.59-5.2,26.18-8.74,5-2.07,11-3,16.52-4.91,4.4-1.58,9.14-2.29,12.93-5.27,1.63-1.29,3.64.84,5.1-.82l-.3,2.44a136.88,136.88,0,0,1-25.76,40.92c-7.12,7.7-15.43,13.93-23.5,20.48L524,345c.94-4.11,4.13-7.23,5.48-10.89a46.12,46.12,0,0,0,2.49-21c-.37-3.36-2.74-5-5.59-3.93-5.11,2-10.86,1.53-15.64,4.43A11.14,11.14,0,0,1,504,315a179.84,179.84,0,0,0-18-29c8.91-4.34,16.36-11,24.59-16.34C517.91,264.88,524.69,259,532,254Z" transform="translate(-115.83 -8.71)" style="fill:#e20000"/><path d="M642,149l2-1c2.07,2.82.07,2.93-2,3C642,150.34,642,149.67,642,149Z" transform="translate(-115.83 -8.71)" style="fill:#85ad23"/><path d="M657,130c0-1.45,0-2.91,2-3C659,128.45,659,129.91,657,130Z" transform="translate(-115.83 -8.71)" style="fill:#85ad23"/><path d="M652,138c0-1.46,0-2.9,2-3A3,3,0,0,1,652,138Z" transform="translate(-115.83 -8.71)" style="fill:#85ad23"/><path d="M642,149c0,.67,0,1.34,0,2l-2,1C640,150.55,640,149.09,642,149Z" transform="translate(-115.83 -8.71)" style="fill:#839e26"/><path d="M650,140a1.82,1.82,0,0,1,2-2A1.82,1.82,0,0,1,650,140Z" transform="translate(-115.83 -8.71)" style="fill:#85ad23"/><path d="M203,147c9.65-7.13,21.25-9.6,32.39-12.68,13.45-3.72,27.17-6.53,40.63-10.31,2.46,9,7.12,17,10.88,25.48,6.22,14,12,28.16,17.67,42.36a36.66,36.66,0,0,1,2.34,10.61c.4,5.22-2.81,8.22-8,8.6-2.79.2-7.33,0-8,1.44-2.6,5.57-8.66,5.86-12.3,9.47-2.48,2.45-8.89,2.91-9.82-.24-1.65-5.59-5-4.54-8.78-3.72a2.07,2.07,0,0,0-1-2,1.82,1.82,0,0,0-2-2l-1-1c-1.55-4.94-5.72-7.9-8.82-11.65-11.61-14-23.29-28-34.86-42.13C209.06,155.26,206.09,151.07,203,147Z" transform="translate(-115.83 -8.71)" style="fill:#ed0000"/><path d="M121,266a99.71,99.71,0,0,1,14.2-37.66c6.08-9.85,13.39-18.78,19.8-28.36,2,4.08,6,6.13,9.4,8.5,16.78,11.76,32.93,24.36,49.49,36.39,2.11,1.53,3.31,3.08,3.16,5.71a8.23,8.23,0,0,0,.58,2.7c6-1.1,6.93,5.49,11.08,7.14,3.38,1.34,5.43,2.88,1.95,6.79-2.14,2.42-5.36,4.69-4.93,8.84a2.85,2.85,0,0,1-1.76,2.19c-6.44.64-5.63,6.19-5.67,9.77-.06,5.54-3.45,6.11-7.21,6.92a7.07,7.07,0,0,1-5.31-.91c-10.51-7-23.57-5.25-34.75-10.67-10.77-5.23-22.32-9.11-33.9-12.57a57.42,57.42,0,0,1-10.43-4.55C124.68,265.16,122.92,265.52,121,266Z" transform="translate(-115.83 -8.71)" style="fill:#ed0000"/><path d="M256,213c.34.33.67.66,1,1a1.82,1.82,0,0,0,2,2,2.07,2.07,0,0,1,1,2c7,9.85,16.2,17.92,23.14,27.79,4.68,6.64,11.33,11.74,14.87,19.23-5.61,5.47-12.25,9.82-17.38,15.83C278.82,283,276.88,285,275,287c-7.4-2.21-12.42-8.06-18.6-12.15-12.56-8.32-24-18.12-36-27.19-4.2-3.17-4.54-6.58-.78-11.59,3.57-4.76,6.7-10.15,11.18-13.85,4.75-3.93,9.74-8.48,16.86-8.29C250.42,214,253.22,213.33,256,213Z" transform="translate(-115.83 -8.71)" style="fill:#d70002"/><path d="M256,317c-3.29,8.55-6.58,17.1-8.52,26.09-.28,1.28-.34,2.6-.5,3.9-9.41.48-18.34-3-27.65-3.48-1.74-.09-3.54-.47-5.34-.52-.07-.66.11-1.65-.25-1.93-7.23-5.52-7.65-14-9.76-21.83-1.53-5.7-.26-11.08.86-16.59.59-2.93,1.53-3.8,4.7-3,7.27,1.71,14.19,4.43,21.2,6.87,7.59,2.63,15.05,5.61,22.53,8.52A12.68,12.68,0,0,1,256,317Z" transform="translate(-115.83 -8.71)" style="fill:#d70002"/><path d="M649.94,64.09c-.06,1.22-.42,2.36-1.78,2.5s-2-1-2-2.18a2.14,2.14,0,0,1,2.14-2.22C649.6,62.11,649.91,63,649.94,64.09Z" transform="translate(-115.83 -8.71)" style="fill:#839e26"/><path d="M635.71,69.09a1.39,1.39,0,0,1-1.35,1.8c-.81.09-1.7,0-2-.92a1.26,1.26,0,0,1,1.06-1.8C634.4,68,635.38,68,635.71,69.09Z" transform="translate(-115.83 -8.71)" style="fill:#839e26"/><path d="M565.25,149.68c-2.41.15-4.4-.63-6.67,2.3-10.15,13.12-21.6,25.19-32.17,38-4.3,5.22-8.34,11.19-13.81,15.18-3.92,2.86-6.72,8.26-13.46,7.05-4.71-.84-5.75,1.79-3.5,7.32-6.69-.12-11.81-3.75-17-7a63.64,63.64,0,0,0-9.52-4.44c-4.73-1.94-8.58-6.2-14.14-6.12,0-1,0-2,0-3,1.65,0,2.16-1.33,2.7-2.55,2.69-6.08,5.73-12,8-18.27,4.38-12.13,11-23.22,15.73-35.17,4.51-11.49,11.38-22,14.56-34,7.7,2.56,15.44,5,22.61,8.91,2.24,1.23,4.65,2.57,7.46,2l0,0c1,3.54,3.68,4.77,7.06,5l0,0c1.79,3,4,5.48,8,5.06C549.36,136.21,557.86,142.26,565.25,149.68Z" transform="translate(-115.83 -8.71)" style="fill:#ed0000"/><path d="M541,130c-4,.42-6.18-2-8-5.06C536.2,125.82,538.65,127.83,541,130Z" transform="translate(-115.83 -8.71)" style="fill:#fc0016"/><path d="M533.09,124.94c-3.38-.23-6-1.46-7.06-5C529.07,120.63,531,122.87,533.09,124.94Z" transform="translate(-115.83 -8.71)" style="fill:#fc0016"/><path d="M567.15,151c-.91,0-1.77-.07-2-1.21A1.79,1.79,0,0,1,567.15,151Z" transform="translate(-115.83 -8.71)" style="fill:#ed0000"/><path d="M496,109c-3.18,12-10.05,22.52-14.56,34-4.7,11.95-11.35,23-15.73,35.17-2.26,6.24-5.3,12.19-8,18.27-.54,1.22-1,2.5-2.7,2.55-.2-1.76.62-3.21,1.33-4.72,2.57-5.44,1.46-7.58-4.5-7.2-10.8.67-21.76-2.17-32.4,2.8-6.7,3.13-13.7,5-14,14.16-.09,3,.16,6.12-.74,8.86C401.84,221.73,401.61,231,400,240c-2.45-1.44-5.17-1-7.78-.95-9.75.3-19.54-.94-29.23.95.5-9.38-2.75-18.31-3.32-27.56a13.11,13.11,0,0,0-6.57-10.51c-2.27-1.44-5.31-1.62-8-2.47-6.82-2.2-13.35-5.28-20.91-4.56-4.25.41-7.79,3.56-12.43,2.53-1.47-.32-2.09,2-1.59,3.55,1.74,5.46,3.18,11.08,5.54,16.27A260.38,260.38,0,0,1,328,249c-10.55,4.33-20.2,10.33-30,16-3.54-7.49-10.19-12.59-14.87-19.23C276.2,235.92,267,227.85,260,218c3.77-.82,7.13-1.87,8.78,3.72.93,3.15,7.34,2.69,9.82.24,3.64-3.61,9.7-3.9,12.3-9.47.67-1.43,5.21-1.24,8-1.44,5.19-.38,8.4-3.38,8-8.6a36.66,36.66,0,0,0-2.34-10.61c-5.7-14.2-11.45-28.39-17.67-42.36C283.13,141,278.47,133,276,124c19.59-6.68,39.13-13.55,59.26-18.52,3.79-.94,7.81-1,11.72-1.48,0,6.15,1.53,12.13,1.95,18.21.94,13.86,3.95,27.43,5.65,41.19,1.18,9.59,3.24,19.15,4.36,28.81.88,7.61,3.13,9.73,10.82,9.79a13.78,13.78,0,0,1,8.21,2.29,9.82,9.82,0,0,0,10.4-.39,15.55,15.55,0,0,1,11.22-2.36c2.79.37,3.55-.57,4.28-2.66,1.8-5.21,3.42-10.39,3.75-16,.61-10.16,3.61-20,5.37-29.93,1.07-6,1.17-12.23,2.71-18.08,2.5-9.51,3-19.23,4.29-28.87,17.82,0,35.65-.19,53.46.09A113,113,0,0,1,496,109Z" transform="translate(-115.83 -8.71)" style="fill:#e20000"/><path d="M420,106c-1.33,9.64-1.79,19.36-4.29,28.87-1.54,5.85-1.64,12.07-2.71,18.08-1.76,10-4.76,19.77-5.37,29.93-.33,5.62-1.95,10.8-3.75,16-.73,2.09-1.49,3-4.28,2.66a15.55,15.55,0,0,0-11.22,2.36,9.82,9.82,0,0,1-10.4.39,13.78,13.78,0,0,0-8.21-2.29c-7.69-.06-9.94-2.18-10.82-9.79-1.12-9.66-3.18-19.22-4.36-28.81-1.7-13.76-4.71-27.33-5.65-41.19-.42-6.08-2-12.06-1.95-18.21a218.57,218.57,0,0,1,51.31.74C405.45,105.71,412.81,104.66,420,106Z" transform="translate(-115.83 -8.71)" style="fill:#ed0000"/><path d="M532,423c1.45,0,2.9,0,3,2C533.55,425,532.1,425,532,423Z" transform="translate(-115.83 -8.71)" style="fill:#e7001b"/><path d="M532,254c-7.31,5-14.09,10.88-21.42,15.67-8.23,5.38-15.68,12-24.59,16.34a125.48,125.48,0,0,0-19.9-18.92A9.29,9.29,0,0,1,463,264c7.93-6.66,13.3-15.57,20.29-23.08,8.18-8.8,15.55-18.33,24.05-26.88,3.58-3.61,6.94-2.08,12.83,2.8,4,3.34,6.9,7.89,11.15,11.06a9.07,9.07,0,0,1,3.23,5.51,14.07,14.07,0,0,0,3.53,7.39c2,2.13,1,4.8-.54,6.87C535.89,249.94,533.86,251.91,532,254Z" transform="translate(-115.83 -8.71)" style="fill:#d70002"/><path d="M400,240c1.61-9,1.84-18.25,4.73-27.07.9-2.74.65-5.89.74-8.86.27-9.14,7.27-11,14-14.16,10.64-5,21.6-2.13,32.4-2.8,6-.38,7.07,1.76,4.5,7.2-.71,1.51-1.53,3-1.33,4.72,0,1,0,2,0,3-4.3,3.62-5.64,9.09-7.52,13.84-4.32,11-9.55,21.48-14.47,32.15-9.36-2.5-18.39-6.28-28.09-7.52C403.28,240.26,401.64,240.14,400,240Z" transform="translate(-115.83 -8.71)" style="fill:#d70002"/><path d="M328,249a260.38,260.38,0,0,0-12.27-31.74c-2.36-5.19-3.8-10.81-5.54-16.27-.5-1.54.12-3.87,1.59-3.55,4.64,1,8.18-2.12,12.43-2.53,7.56-.72,14.09,2.36,20.91,4.56,2.66.85,5.7,1,8,2.47a13.11,13.11,0,0,1,6.57,10.51c.57,9.25,3.82,18.18,3.32,27.56-10.21,1.41-20.24,3.48-29.84,7.39C331.5,248.05,329.73,248.45,328,249Z" transform="translate(-115.83 -8.71)" style="fill:#d70002"/><path d="M504,315a11.14,11.14,0,0,0,6.73-1.34c4.78-2.9,10.53-2.44,15.64-4.43,2.85-1.1,5.22.57,5.59,3.93a46.12,46.12,0,0,1-2.49,21c-1.35,3.66-4.54,6.78-5.48,10.89l-3,0c-1.53-1.56-1.83-.43-2,.93l-7,1.07c-.19-9.12-3.26-17.52-6.5-25.85C504.76,319.16,503.76,317.26,504,315Z" transform="translate(-115.83 -8.71)" style="fill:#d70002"/><path d="M383.35,450.27c-29.21,0-50.17-11.47-65.9-30.87-15.19-18.72-20.7-41.12-16.74-65.43.59-3.66,1.28-7,3.12-10.27,1.95-3.42,0-7.46,2-11.3,6-11.66,12.14-23.27,22.51-31.62,12-9.68,25.25-16.46,41.22-18A86.79,86.79,0,0,1,408,287.45a67,67,0,0,1,18.87,11,80.86,80.86,0,0,1,15.81,17.05A93.63,93.63,0,0,1,458,350c1.1,5.28,3.47,10.15,3.13,15.9-.69,12-3.82,23.3-7.58,34.72-3.55,10.79-10.62,18.86-17.72,26.53A67.12,67.12,0,0,1,402.66,447C395.22,448.84,387.9,451,383.35,450.27Zm44.77-35.09q1.62-1.55,3.25-3.08c28.6-26.8,29.21-69.57,1.38-97-24.86-24.52-67.93-27.35-97.15-6.39-24.58,17.63-35.28,45.77-27.79,73.58,4.3,16,14,28.11,27.17,37.76-.65,1.17-.14,2,.51,3.09,2.59,4.41,7.67,5.19,11.46,7.52,14.4,8.88,30.58,9.73,46.92,7.46,11.82-1.63,21.88-7.16,30.44-15.45.71-.69,1.46-1.8,2.27-1.86C432.42,420.29,429.43,417.53,428.12,415.18Z" transform="translate(-115.83 -8.71)" style="fill:#df001d"/><path d="M519,346c.2-1.36.5-2.49,2-.93A2.18,2.18,0,0,1,519,346Z" transform="translate(-115.83 -8.71)" style="fill:#e20000"/><path d="M308.63,525.52c-.07,1.21-.71,1.33-1.38,1.27s-1.07-.67-1.07-1.37.58-1.21,1.26-1C308,524.65,308.33,525.25,308.63,525.52Z" transform="translate(-115.83 -8.71)" style="fill:#fc0016"/><path d="M259,216a1.82,1.82,0,0,1-2-2A1.82,1.82,0,0,1,259,216Z" transform="translate(-115.83 -8.71)" style="fill:#e20000"/><path d="M335,420c-13.14-9.65-22.87-21.81-27.17-37.76-7.49-27.81,3.21-55.95,27.79-73.58,29.22-21,72.29-18.13,97.15,6.39,27.83,27.45,27.22,70.22-1.38,97q-1.64,1.53-3.25,3.08c-.83.54-1.69,1-2.48,1.62a77.92,77.92,0,0,1-48.8,16C361.68,432.72,347.84,427.88,335,420Z" transform="translate(-115.83 -8.71)" style="fill:#241f20"/><path d="M335,420c12.86,7.85,26.7,12.69,41.86,12.81a77.92,77.92,0,0,0,48.8-16c.79-.59,1.65-1.08,2.48-1.62,1.31,2.35,4.3,5.11-1.54,5.61-.81.06-1.56,1.17-2.27,1.86-8.56,8.29-18.62,13.82-30.44,15.45-16.34,2.27-32.52,1.42-46.92-7.46-3.79-2.33-8.87-3.11-11.46-7.52C334.84,422,334.33,421.2,335,420Z" transform="translate(-115.83 -8.71)" style="fill:#be081e"/><ellipse cx="268.17" cy="353.29" rx="77" ry="71" style="fill:#241f20"/></svg>